<?xml version="1.0" standalone="no"?>
<!DOCTYPE svg PUBLIC "-//W3C//DTD SVG 20010904//EN"
 "http://www.w3.org/TR/2001/REC-SVG-20010904/DTD/svg10.dtd">
<svg version="1.0" xmlns="http://www.w3.org/2000/svg"
 width="700.000000pt" height="700.000000pt" viewBox="0 0 700.000000 700.000000"
 preserveAspectRatio="xMidYMid meet">
<metadata>
Created by potrace 1.11, written by Peter Selinger 2001-2013
</metadata>
<g transform="translate(0.000000,700.000000) scale(0.100000,-0.100000)"
fill="#000000" stroke="none">
<path d="M184 3493 l1 -3058 368 -1 367 0 0 1368 c0 752 3 1368 8 1367 18 -2
255 -287 398 -479 302 -406 667 -1000 921 -1497 26 -51 48 -92 49 -90 1 1 5
90 9 197 4 107 8 242 10 300 2 58 7 182 10 275 3 94 7 206 10 250 3 44 7 150
11 235 3 85 7 182 9 215 2 39 -3 70 -12 90 -21 41 -268 413 -372 560 -94 132
-224 302 -314 409 -32 38 -56 75 -53 81 2 6 69 110 149 231 421 637 1109 1735
1298 2071 18 32 53 92 76 128 7 11 41 69 75 128 35 60 70 120 79 135 9 15 31
53 48 85 l33 57 -443 -2 -443 -3 -27 -45 c-15 -25 -42 -70 -60 -100 -287 -495
-886 -1480 -1097 -1805 -103 -159 -221 -340 -299 -460 l-73 -110 0 1263 0
1262 -369 0 -369 0 2 -3057z"/>
<path d="M5811 6528 c-5 -13 -18 -50 -31 -83 -12 -33 -26 -69 -30 -80 -36 -84
-375 -1109 -396 -1195 -2 -8 -51 -168 -109 -355 -97 -311 -138 -446 -200 -655
-36 -121 -196 -674 -200 -690 -6 -21 -24 -85 -94 -325 -34 -115 -82 -282 -107
-370 -26 -88 -47 -161 -48 -162 -2 -2 -19 54 -39 125 -40 140 -109 374 -137
467 -40 132 -82 273 -165 560 -263 907 -617 2032 -805 2558 l-42 118 -17 -28
c-10 -15 -70 -118 -135 -228 -65 -110 -121 -207 -127 -215 -5 -8 -98 -163
-207 -345 -109 -181 -233 -386 -275 -455 l-76 -125 -6 -110 c-3 -60 -8 -141
-10 -180 -2 -38 -7 -113 -10 -165 -3 -52 -7 -126 -10 -165 -5 -77 -13 -217
-20 -370 -3 -55 -7 -136 -10 -180 -7 -119 -14 -254 -20 -400 -3 -71 -8 -173
-10 -225 -2 -52 -7 -151 -10 -220 -3 -69 -7 -174 -10 -235 -3 -60 -7 -166 -10
-235 -3 -69 -7 -172 -10 -230 -13 -280 -21 -473 -30 -755 -2 -71 -7 -209 -10
-305 -3 -96 -8 -229 -10 -295 -2 -66 -6 -215 -10 -331 l-7 -210 355 0 c195 1
359 5 364 9 4 5 8 29 9 55 1 26 4 182 8 347 4 165 9 374 11 465 2 91 7 271 10
400 5 227 8 319 20 795 3 121 8 272 10 335 2 63 7 187 10 275 3 88 7 205 10
260 2 55 7 163 10 240 5 132 11 254 20 425 2 41 7 136 10 210 3 74 8 155 10
180 5 53 18 288 17 310 0 8 2 29 5 45 6 30 6 29 19 -15 7 -25 36 -119 64 -210
29 -91 58 -185 65 -210 7 -25 25 -83 40 -130 28 -88 51 -164 84 -272 10 -35
42 -139 71 -233 50 -163 162 -549 331 -1135 72 -251 93 -322 150 -505 10 -33
59 -204 109 -380 50 -176 97 -345 106 -375 9 -30 17 -59 18 -64 1 -6 113 -10
278 -10 l276 -1 57 195 c31 107 65 227 77 265 11 39 24 84 29 100 5 17 52 179
103 360 52 182 120 418 151 525 31 107 70 242 87 300 16 58 61 209 100 335 38
127 74 244 78 260 9 35 162 542 190 630 11 33 39 125 64 205 102 331 125 395
127 365 1 -16 3 -46 4 -65 1 -19 6 -91 9 -160 4 -69 9 -152 11 -185 5 -79 21
-411 30 -630 12 -292 21 -555 30 -845 3 -113 8 -270 10 -350 5 -154 13 -425
20 -680 2 -85 7 -238 10 -340 3 -102 7 -273 10 -380 13 -572 17 -705 20 -711
2 -3 165 -5 362 -5 l358 1 -1 80 c-1 44 -4 170 -8 280 -4 110 -8 259 -11 330
-4 128 -12 334 -20 510 -2 50 -7 158 -10 240 -3 83 -7 200 -10 260 -2 61 -7
175 -10 255 -3 80 -8 190 -10 245 -3 55 -7 152 -10 215 -3 63 -7 165 -10 225
-3 61 -7 151 -10 200 -8 144 -14 271 -20 405 -5 120 -8 167 -20 420 -14 285
-19 381 -30 555 -7 113 -16 267 -20 355 -2 41 -7 107 -10 145 -3 39 -7 108
-10 155 -8 135 -16 251 -20 300 -2 25 -7 97 -10 160 -3 63 -8 131 -10 150 -2
19 -7 82 -10 140 -4 58 -8 121 -10 140 -2 19 -7 80 -10 135 -4 55 -9 109 -10
120 -1 11 -3 37 -4 58 l-1 37 -335 0 -335 0 -9 -22z"/>
<path d="M3199 1018 c0 -24 -2 -106 -4 -183 -3 -170 -6 -364 -6 -386 1 -13 21
-15 144 -15 121 1 142 3 139 16 -5 22 -159 382 -208 486 -24 50 -44 96 -44
102 0 6 -4 14 -10 17 -6 4 -10 -11 -11 -37z"/>
</g>
</svg>
