<?xml version="1.0" encoding="UTF-8" standalone="no"?>
<!-- Created with Inkscape (http://www.inkscape.org/) -->

<svg
   xmlns:dc="http://purl.org/dc/elements/1.1/"
   xmlns:cc="http://creativecommons.org/ns#"
   xmlns:rdf="http://www.w3.org/1999/02/22-rdf-syntax-ns#"
   xmlns:svg="http://www.w3.org/2000/svg"
   xmlns="http://www.w3.org/2000/svg"
   xmlns:sodipodi="http://sodipodi.sourceforge.net/DTD/sodipodi-0.dtd"
   xmlns:inkscape="http://www.inkscape.org/namespaces/inkscape"
   width="640"
   height="360"
   viewBox="0 0 169.33333 95.25"
   version="1.1"
   id="svg8"
   inkscape:version="0.92.4 (f8dce91, 2019-08-02)"
   sodipodi:docname="email.svg">
  <defs
     id="defs2" />
  <sodipodi:namedview
     id="base"
     pagecolor="#ffffff"
     bordercolor="#666666"
     borderopacity="1.0"
     inkscape:pageopacity="0.0"
     inkscape:pageshadow="2"
     inkscape:zoom="1"
     inkscape:cx="234.0351"
     inkscape:cy="189.10703"
     inkscape:document-units="px"
     inkscape:current-layer="layer1"
     showgrid="false"
     units="px"
     inkscape:window-width="1366"
     inkscape:window-height="731"
     inkscape:window-x="0"
     inkscape:window-y="0"
     inkscape:window-maximized="1"
     showborder="true" />
  <metadata
     id="metadata5">
    <rdf:RDF>
      <cc:Work
         rdf:about="">
        <dc:format>image/svg+xml</dc:format>
        <dc:type
           rdf:resource="http://purl.org/dc/dcmitype/StillImage" />
        <dc:title></dc:title>
      </cc:Work>
    </rdf:RDF>
  </metadata>
  <g
     inkscape:label="Layer 1"
     inkscape:groupmode="layer"
     id="layer1"
     transform="translate(0,-201.74998)">
    <g
       id="g1008"
       transform="translate(-16.933336,30.434655)">
      <g
         aria-label="Get in touch"
         style="font-style:normal;font-variant:normal;font-weight:300;font-stretch:normal;font-size:8.28625011px;line-height:5.75434017px;font-family:Ubuntu;-inkscape-font-specification:'Ubuntu, Light';font-variant-ligatures:normal;font-variant-caps:normal;font-variant-numeric:normal;font-feature-settings:normal;text-align:start;letter-spacing:0px;word-spacing:0px;writing-mode:lr-tb;text-anchor:start;fill:#535d6c;fill-opacity:1;stroke:none;stroke-width:0.2301736"
         id="text4520">
        <path
           d="M 83.533835,208.52183 H 84.0973 v 2.56045 q -0.157439,0.0663 -0.621469,0.16572 -0.455744,0.10772 -1.12693,0.10772 -0.563465,0 -1.044068,-0.19887 -0.480602,-0.19887 -0.836911,-0.57175 -0.348022,-0.38117 -0.546892,-0.93634 -0.19887,-0.56347 -0.19887,-1.28437 0,-0.72091 0.215442,-1.27609 0.215443,-0.56346 0.580038,-0.93634 0.372881,-0.38117 0.86177,-0.58004 0.488888,-0.19887 1.044067,-0.19887 0.638041,0 1.052354,0.14087 0.414312,0.13258 0.604896,0.25687 l -0.190584,0.4806 q -0.232015,-0.16572 -0.629755,-0.26516 -0.39774,-0.10772 -0.86177,-0.10772 -0.430885,0 -0.812052,0.15744 -0.381168,0.15744 -0.6629,0.47232 -0.281733,0.31487 -0.447458,0.7789 -0.157438,0.46403 -0.157438,1.07722 0,0.57175 0.13258,1.03578 0.13258,0.45574 0.39774,0.78719 0.273446,0.32317 0.671186,0.49718 0.39774,0.17401 0.919774,0.17401 0.422598,0 0.704331,-0.0414 0.290019,-0.0497 0.389454,-0.0911 z"
           style="font-style:normal;font-variant:normal;font-weight:300;font-stretch:normal;font-size:8.28625011px;font-family:Ubuntu;-inkscape-font-specification:'Ubuntu, Light';font-variant-ligatures:normal;font-variant-caps:normal;font-variant-numeric:normal;font-feature-settings:normal;text-align:start;writing-mode:lr-tb;text-anchor:start;fill:#535d6c;fill-opacity:1;stroke-width:0.2301736"
           id="path1010"
           inkscape:connector-curvature="0" />
        <path
           d="m 85.118192,209.09358 q 0,-0.56347 0.157438,-0.97778 0.165725,-0.4226 0.422599,-0.70433 0.26516,-0.28173 0.59661,-0.41431 0.339736,-0.14087 0.696045,-0.14087 0.787194,0 1.251224,0.51375 0.472316,0.51374 0.472316,1.58267 0,0.0663 -0.0083,0.13258 0,0.0663 -0.0083,0.12429 h -3.007909 q 0.02486,0.7872 0.389454,1.2098 0.364595,0.4226 1.160075,0.4226 0.439171,0 0.696045,-0.0829 0.256873,-0.0829 0.372881,-0.14086 l 0.09943,0.46403 q -0.116008,0.0663 -0.439171,0.15744 -0.314878,0.0911 -0.745763,0.0911 -0.563465,0 -0.961205,-0.16572 -0.39774,-0.16573 -0.654614,-0.46403 -0.256873,-0.29831 -0.372881,-0.70433 -0.116007,-0.41431 -0.116007,-0.9032 z m 3.041053,-0.33974 q -0.01657,-0.67119 -0.314877,-1.04407 -0.298305,-0.37288 -0.845198,-0.37288 -0.290018,0 -0.522033,0.11601 -0.223729,0.11601 -0.39774,0.31488 -0.165725,0.19058 -0.26516,0.44745 -0.09115,0.25688 -0.107722,0.53861 z"
           style="font-style:normal;font-variant:normal;font-weight:300;font-stretch:normal;font-size:8.28625011px;font-family:Ubuntu;-inkscape-font-specification:'Ubuntu, Light';font-variant-ligatures:normal;font-variant-caps:normal;font-variant-numeric:normal;font-feature-settings:normal;text-align:start;writing-mode:lr-tb;text-anchor:start;fill:#535d6c;fill-opacity:1;stroke-width:0.2301736"
           id="path1012"
           inkscape:connector-curvature="0" />
        <path
           d="m 90.428253,206.95572 h 1.706968 v 0.45575 h -1.706968 v 2.27872 q 0,0.36459 0.058,0.59661 0.06629,0.22373 0.182298,0.34802 0.116007,0.12429 0.281732,0.16572 0.165725,0.0414 0.364595,0.0414 0.339736,0 0.546893,-0.0746 0.207156,-0.0829 0.323163,-0.14915 l 0.13258,0.44745 q -0.116007,0.0746 -0.406026,0.17402 -0.290019,0.0911 -0.629755,0.0911 -0.39774,0 -0.671186,-0.0994 -0.26516,-0.10772 -0.430885,-0.31488 -0.157439,-0.21544 -0.223729,-0.53032 -0.06629,-0.31488 -0.06629,-0.74576 v -3.94426 l 0.538606,-0.0994 z"
           style="font-style:normal;font-variant:normal;font-weight:300;font-stretch:normal;font-size:8.28625011px;font-family:Ubuntu;-inkscape-font-specification:'Ubuntu, Light';font-variant-ligatures:normal;font-variant-caps:normal;font-variant-numeric:normal;font-feature-settings:normal;text-align:start;writing-mode:lr-tb;text-anchor:start;fill:#535d6c;fill-opacity:1;stroke-width:0.2301736"
           id="path1014"
           inkscape:connector-curvature="0" />
        <path
           d="m 95.559385,211.23972 h -0.538607 v -4.284 h 0.538607 z m 0.124293,-5.57665 q 0,0.19058 -0.116007,0.30659 -0.116008,0.10772 -0.281733,0.10772 -0.165725,0 -0.281732,-0.10772 -0.116008,-0.11601 -0.116008,-0.30659 0,-0.19058 0.116008,-0.29831 0.116007,-0.116 0.281732,-0.116 0.165725,0 0.281733,0.116 0.116007,0.10773 0.116007,0.29831 z"
           style="font-style:normal;font-variant:normal;font-weight:300;font-stretch:normal;font-size:8.28625011px;font-family:Ubuntu;-inkscape-font-specification:'Ubuntu, Light';font-variant-ligatures:normal;font-variant-caps:normal;font-variant-numeric:normal;font-feature-settings:normal;text-align:start;writing-mode:lr-tb;text-anchor:start;fill:#535d6c;fill-opacity:1;stroke-width:0.2301736"
           id="path1016"
           inkscape:connector-curvature="0" />
        <path
           d="m 96.979053,207.10488 q 0.240301,-0.0663 0.646328,-0.14916 0.406026,-0.0829 0.99435,-0.0829 0.488888,0 0.812052,0.14087 0.33145,0.14086 0.522034,0.40602 0.198873,0.25688 0.281733,0.62147 0.0829,0.3646 0.0829,0.80377 v 2.39473 H 99.779806 V 209.019 q 0,-0.45574 -0.06629,-0.77062 -0.058,-0.31488 -0.207157,-0.51375 -0.140866,-0.19887 -0.381167,-0.28173 -0.232015,-0.0911 -0.588324,-0.0911 -0.381167,0 -0.6629,0.0414 -0.273446,0.0414 -0.356309,0.0746 v 3.76196 h -0.538606 z"
           style="font-style:normal;font-variant:normal;font-weight:300;font-stretch:normal;font-size:8.28625011px;font-family:Ubuntu;-inkscape-font-specification:'Ubuntu, Light';font-variant-ligatures:normal;font-variant-caps:normal;font-variant-numeric:normal;font-feature-settings:normal;text-align:start;writing-mode:lr-tb;text-anchor:start;fill:#535d6c;fill-opacity:1;stroke-width:0.2301736"
           id="path1018"
           inkscape:connector-curvature="0" />
        <path
           d="m 104.08762,206.95572 h 1.70697 v 0.45575 h -1.70697 v 2.27872 q 0,0.36459 0.058,0.59661 0.0663,0.22373 0.1823,0.34802 0.11601,0.12429 0.28173,0.16572 0.16573,0.0414 0.3646,0.0414 0.33973,0 0.54689,-0.0746 0.20716,-0.0829 0.32316,-0.14915 l 0.13258,0.44745 q -0.116,0.0746 -0.40602,0.17402 -0.29002,0.0911 -0.62976,0.0911 -0.39774,0 -0.67118,-0.0994 -0.26516,-0.10772 -0.43089,-0.31488 -0.15744,-0.21544 -0.22373,-0.53032 -0.0663,-0.31488 -0.0663,-0.74576 v -3.94426 l 0.53861,-0.0994 z"
           style="font-style:normal;font-variant:normal;font-weight:300;font-stretch:normal;font-size:8.28625011px;font-family:Ubuntu;-inkscape-font-specification:'Ubuntu, Light';font-variant-ligatures:normal;font-variant-caps:normal;font-variant-numeric:normal;font-feature-settings:normal;text-align:start;writing-mode:lr-tb;text-anchor:start;fill:#535d6c;fill-opacity:1;stroke-width:0.2301736"
           id="path1020"
           inkscape:connector-curvature="0" />
        <path
           d="m 110.44084,209.10186 q 0,0.50546 -0.14915,0.91978 -0.14087,0.41431 -0.40603,0.70433 -0.25687,0.29002 -0.61318,0.45574 -0.35631,0.15744 -0.78719,0.15744 -0.43089,0 -0.7872,-0.15744 -0.35631,-0.16572 -0.62147,-0.45574 -0.25687,-0.29002 -0.40602,-0.70433 -0.14087,-0.41432 -0.14087,-0.91978 0,-0.50546 0.14087,-0.91977 0.14915,-0.41431 0.40602,-0.70433 0.26516,-0.29831 0.62147,-0.45575 0.35631,-0.16572 0.7872,-0.16572 0.43088,0 0.78719,0.16572 0.35631,0.15744 0.61318,0.45575 0.26516,0.29002 0.40603,0.70433 0.14915,0.41431 0.14915,0.91977 z m -0.57175,0 q 0,-0.80376 -0.37288,-1.27608 -0.37288,-0.4806 -1.01092,-0.4806 -0.63804,0 -1.01093,0.4806 -0.37288,0.47232 -0.37288,1.27608 0,0.80377 0.37288,1.27609 0.37289,0.47231 1.01093,0.47231 0.63804,0 1.01092,-0.47231 0.37288,-0.47232 0.37288,-1.27609 z"
           style="font-style:normal;font-variant:normal;font-weight:300;font-stretch:normal;font-size:8.28625011px;font-family:Ubuntu;-inkscape-font-specification:'Ubuntu, Light';font-variant-ligatures:normal;font-variant-caps:normal;font-variant-numeric:normal;font-feature-settings:normal;text-align:start;writing-mode:lr-tb;text-anchor:start;fill:#535d6c;fill-opacity:1;stroke-width:0.2301736"
           id="path1022"
           inkscape:connector-curvature="0" />
        <path
           d="m 114.8991,211.09056 q -0.2403,0.0663 -0.64632,0.14916 -0.40603,0.0829 -0.99435,0.0829 -0.48061,0 -0.80377,-0.14087 -0.32316,-0.14086 -0.52203,-0.39774 -0.19887,-0.25687 -0.29002,-0.62147 -0.0829,-0.36459 -0.0829,-0.80376 v -2.40302 h 0.53861 v 2.22901 q 0,0.45574 0.0663,0.77062 0.0663,0.31487 0.21544,0.51374 0.14916,0.19059 0.38117,0.28174 0.2403,0.0829 0.58004,0.0829 0.38117,0 0.6629,-0.0414 0.28173,-0.0414 0.35631,-0.0746 v -3.76196 h 0.5386 z"
           style="font-style:normal;font-variant:normal;font-weight:300;font-stretch:normal;font-size:8.28625011px;font-family:Ubuntu;-inkscape-font-specification:'Ubuntu, Light';font-variant-ligatures:normal;font-variant-caps:normal;font-variant-numeric:normal;font-feature-settings:normal;text-align:start;writing-mode:lr-tb;text-anchor:start;fill:#535d6c;fill-opacity:1;stroke-width:0.2301736"
           id="path1024"
           inkscape:connector-curvature="0" />
        <path
           d="m 118.09229,211.33086 q -0.49718,0 -0.87834,-0.15743 -0.38117,-0.15744 -0.63804,-0.44746 -0.24859,-0.29831 -0.38117,-0.70433 -0.13258,-0.41432 -0.13258,-0.91149 0,-0.50546 0.13258,-0.91977 0.14086,-0.41432 0.39774,-0.71262 0.25687,-0.29831 0.62147,-0.45575 0.36459,-0.16572 0.82034,-0.16572 0.34802,0 0.64632,0.058 0.30659,0.058 0.47232,0.14916 l -0.14087,0.46403 q -0.16572,-0.0829 -0.37288,-0.13258 -0.20715,-0.0497 -0.55518,-0.0497 -0.71261,0 -1.0855,0.46403 -0.36459,0.45574 -0.36459,1.30094 0,0.38117 0.0829,0.70433 0.0829,0.31488 0.26516,0.54689 0.19059,0.22373 0.4806,0.35631 0.29831,0.1243 0.72091,0.1243 0.34802,0 0.58004,-0.0746 0.2403,-0.0829 0.34802,-0.14087 l 0.11601,0.46403 q -0.14916,0.0829 -0.47232,0.15744 -0.31488,0.0829 -0.6629,0.0829 z"
           style="font-style:normal;font-variant:normal;font-weight:300;font-stretch:normal;font-size:8.28625011px;font-family:Ubuntu;-inkscape-font-specification:'Ubuntu, Light';font-variant-ligatures:normal;font-variant-caps:normal;font-variant-numeric:normal;font-feature-settings:normal;text-align:start;writing-mode:lr-tb;text-anchor:start;fill:#535d6c;fill-opacity:1;stroke-width:0.2301736"
           id="path1026"
           inkscape:connector-curvature="0" />
        <path
           d="m 120.13848,211.23972 v -6.3307 l 0.5386,-0.0994 v 2.27043 q 0.26516,-0.0994 0.53861,-0.14915 0.27344,-0.058 0.54689,-0.058 0.49718,0 0.82863,0.14087 0.33145,0.14086 0.53032,0.40602 0.19887,0.25688 0.27344,0.62147 0.0829,0.3646 0.0829,0.80377 v 2.39473 h -0.5386 V 209.019 q 0,-0.45574 -0.0663,-0.77062 -0.058,-0.31488 -0.20716,-0.51375 -0.14086,-0.19887 -0.38117,-0.28173 -0.2403,-0.0911 -0.60489,-0.0911 -0.14087,0 -0.30659,0.0249 -0.15744,0.0249 -0.29831,0.058 -0.14086,0.0249 -0.25687,0.058 -0.10772,0.0331 -0.14087,0.0497 v 3.68739 z"
           style="font-style:normal;font-variant:normal;font-weight:300;font-stretch:normal;font-size:8.28625011px;font-family:Ubuntu;-inkscape-font-specification:'Ubuntu, Light';font-variant-ligatures:normal;font-variant-caps:normal;font-variant-numeric:normal;font-feature-settings:normal;text-align:start;writing-mode:lr-tb;text-anchor:start;fill:#535d6c;fill-opacity:1;stroke-width:0.2301736"
           id="path1028"
           inkscape:connector-curvature="0" />
      </g>
      <g
         aria-label="kevingsx@gmail.com"
         style="font-style:normal;font-variant:normal;font-weight:normal;font-stretch:normal;font-size:10.63644981px;line-height:5.53981829px;font-family:Ubuntu;-inkscape-font-specification:'Ubuntu, Normal';font-variant-ligatures:normal;font-variant-caps:normal;font-variant-numeric:normal;font-feature-settings:normal;text-align:start;letter-spacing:0px;word-spacing:0px;writing-mode:lr-tb;text-anchor:start;fill:#162d50;fill-opacity:1;stroke:none;stroke-width:0.22159271"
         id="text4524">
        <path
           d="m 53.866106,220.88507 q 0.319093,0.24464 0.670096,0.60628 0.361639,0.36164 0.702006,0.78709 0.351003,0.41483 0.65946,0.85092 0.308457,0.42546 0.521186,0.79773 h -1.159373 q -0.223366,-0.37227 -0.521186,-0.75518 -0.287184,-0.39355 -0.606278,-0.74456 -0.319093,-0.36164 -0.648823,-0.65946 -0.32973,-0.29782 -0.627551,-0.49991 v 2.65911 h -0.98919 v -8.0837 l 0.98919,-0.17018 v 5.04168 q 0.255275,-0.25528 0.563732,-0.56374 0.308457,-0.30845 0.606278,-0.62755 0.29782,-0.31909 0.563731,-0.60627 0.265912,-0.29782 0.457368,-0.52119 h 1.159373 q -0.244639,0.26591 -0.531823,0.585 -0.287184,0.3191 -0.595641,0.64883 -0.308457,0.31909 -0.62755,0.64882 -0.308457,0.31909 -0.585005,0.60628 z"
           style="font-style:normal;font-variant:normal;font-weight:normal;font-stretch:normal;font-size:10.63644981px;font-family:Ubuntu;-inkscape-font-specification:'Ubuntu, Normal';font-variant-ligatures:normal;font-variant-caps:normal;font-variant-numeric:normal;font-feature-settings:normal;text-align:start;writing-mode:lr-tb;text-anchor:start;fill:#162d50;fill-opacity:1;stroke-width:0.22159271"
           id="path1031"
           inkscape:connector-curvature="0" />
        <path
           d="m 56.834672,221.17225 q 0,-0.73391 0.212729,-1.27637 0.212729,-0.5531 0.563732,-0.91474 0.351003,-0.36163 0.80837,-0.54245 0.457368,-0.18082 0.936008,-0.18082 1.116827,0 1.712468,0.702 0.595642,0.69137 0.595642,2.11665 0,0.0638 0,0.17019 0,0.0957 -0.01064,0.18082 h -3.786576 q 0.06382,0.86155 0.499913,1.30828 0.436095,0.44673 1.361466,0.44673 0.521186,0 0.872189,-0.0851 0.361639,-0.0957 0.542459,-0.18082 l 0.138273,0.82964 q -0.180819,0.0957 -0.638187,0.2021 -0.44673,0.10636 -1.021099,0.10636 -0.723278,0 -1.255101,-0.21273 -0.521186,-0.22336 -0.861552,-0.60628 -0.340367,-0.38291 -0.51055,-0.90409 -0.159547,-0.53183 -0.159547,-1.15938 z m 3.797213,-0.54246 q 0.01064,-0.67009 -0.340366,-1.09555 -0.340367,-0.43609 -0.946644,-0.43609 -0.340367,0 -0.606278,0.13827 -0.255275,0.12764 -0.436095,0.34037 -0.180819,0.21272 -0.287184,0.48927 -0.09573,0.27655 -0.127637,0.56373 z"
           style="font-style:normal;font-variant:normal;font-weight:normal;font-stretch:normal;font-size:10.63644981px;font-family:Ubuntu;-inkscape-font-specification:'Ubuntu, Normal';font-variant-ligatures:normal;font-variant-caps:normal;font-variant-numeric:normal;font-feature-settings:normal;text-align:start;writing-mode:lr-tb;text-anchor:start;fill:#162d50;fill-opacity:1;stroke-width:0.22159271"
           id="path1033"
           inkscape:connector-curvature="0" />
        <path
           d="m 67.402982,218.39614 q -0.414822,1.55292 -0.978553,2.97821 -0.553096,1.42528 -1.074282,2.55274 h -0.893462 q -0.521186,-1.12746 -1.084917,-2.55274 -0.553096,-1.42529 -0.967917,-2.97821 h 1.063645 q 0.127637,0.52119 0.29782,1.11683 0.18082,0.585 0.372276,1.17001 0.202092,0.57436 0.404185,1.11682 0.202093,0.54246 0.382912,0.96792 0.18082,-0.42546 0.382912,-0.96792 0.202093,-0.54246 0.393549,-1.11682 0.202093,-0.58501 0.372276,-1.17001 0.180819,-0.59564 0.308457,-1.11683 z"
           style="font-style:normal;font-variant:normal;font-weight:normal;font-stretch:normal;font-size:10.63644981px;font-family:Ubuntu;-inkscape-font-specification:'Ubuntu, Normal';font-variant-ligatures:normal;font-variant-caps:normal;font-variant-numeric:normal;font-feature-settings:normal;text-align:start;writing-mode:lr-tb;text-anchor:start;fill:#162d50;fill-opacity:1;stroke-width:0.22159271"
           id="path1035"
           inkscape:connector-curvature="0" />
        <path
           d="m 69.412772,223.92709 h -0.98919 v -5.53095 h 0.98919 z m -0.499913,-6.53078 q -0.265911,0 -0.457367,-0.17018 -0.18082,-0.18082 -0.18082,-0.47864 0,-0.29782 0.18082,-0.468 0.191456,-0.18082 0.457367,-0.18082 0.265911,0 0.446731,0.18082 0.191456,0.17018 0.191456,0.468 0,0.29782 -0.191456,0.47864 -0.18082,0.17018 -0.446731,0.17018 z"
           style="font-style:normal;font-variant:normal;font-weight:normal;font-stretch:normal;font-size:10.63644981px;font-family:Ubuntu;-inkscape-font-specification:'Ubuntu, Normal';font-variant-ligatures:normal;font-variant-caps:normal;font-variant-numeric:normal;font-feature-settings:normal;text-align:start;writing-mode:lr-tb;text-anchor:start;fill:#162d50;fill-opacity:1;stroke-width:0.22159271"
           id="path1037"
           inkscape:connector-curvature="0" />
        <path
           d="m 71.124245,218.55569 q 0.340366,-0.0851 0.904098,-0.18082 0.563732,-0.0957 1.297647,-0.0957 0.65946,0 1.095554,0.19145 0.436095,0.18082 0.691369,0.52119 0.265912,0.32973 0.372276,0.79773 0.106365,0.46801 0.106365,1.03174 v 3.10584 h -0.98919 v -2.89311 q 0,-0.51055 -0.07446,-0.87219 -0.06382,-0.36164 -0.223366,-0.585 -0.159546,-0.22337 -0.425458,-0.3191 -0.265911,-0.10636 -0.65946,-0.10636 -0.159546,0 -0.32973,0.0106 -0.170183,0.0106 -0.32973,0.0319 -0.14891,0.0106 -0.276547,0.0319 -0.117001,0.0213 -0.170183,0.0319 v 4.6694 h -0.98919 z"
           style="font-style:normal;font-variant:normal;font-weight:normal;font-stretch:normal;font-size:10.63644981px;font-family:Ubuntu;-inkscape-font-specification:'Ubuntu, Normal';font-variant-ligatures:normal;font-variant-caps:normal;font-variant-numeric:normal;font-feature-settings:normal;text-align:start;writing-mode:lr-tb;text-anchor:start;fill:#162d50;fill-opacity:1;stroke-width:0.22159271"
           id="path1039"
           inkscape:connector-curvature="0" />
        <path
           d="m 80.699376,223.374 q -0.127637,0.0851 -0.499913,0.22336 -0.361639,0.12764 -0.850916,0.12764 -0.499913,0 -0.946644,-0.15955 -0.436094,-0.15954 -0.765824,-0.48927 -0.32973,-0.34037 -0.521186,-0.84028 -0.191456,-0.49992 -0.191456,-1.19128 0,-0.60628 0.180819,-1.1062 0.18082,-0.51054 0.521186,-0.87218 0.351003,-0.37228 0.850916,-0.57437 0.499913,-0.21273 1.127464,-0.21273 0.691369,0 1.201919,0.10636 0.521186,0.0957 0.872189,0.18082 v 4.93532 q 0,1.27637 -0.65946,1.85074 -0.65946,0.57437 -1.999653,0.57437 -0.521186,0 -0.98919,-0.0851 -0.457367,-0.0851 -0.797733,-0.20209 l 0.180819,-0.86155 q 0.297821,0.117 0.723279,0.20209 0.436094,0.0957 0.904098,0.0957 0.882825,0 1.265738,-0.351 0.393548,-0.35101 0.393548,-1.11683 z m -0.01064,-4.10567 q -0.14891,-0.0426 -0.404185,-0.0745 -0.244639,-0.0425 -0.670097,-0.0425 -0.797733,0 -1.233828,0.52118 -0.425458,0.52119 -0.425458,1.38274 0,0.47864 0.117001,0.81901 0.127638,0.34037 0.32973,0.56373 0.212729,0.22337 0.47864,0.32973 0.276548,0.10636 0.563732,0.10636 0.393549,0 0.723279,-0.10636 0.32973,-0.117 0.521186,-0.26591 z"
           style="font-style:normal;font-variant:normal;font-weight:normal;font-stretch:normal;font-size:10.63644981px;font-family:Ubuntu;-inkscape-font-specification:'Ubuntu, Normal';font-variant-ligatures:normal;font-variant-caps:normal;font-variant-numeric:normal;font-feature-settings:normal;text-align:start;writing-mode:lr-tb;text-anchor:start;fill:#162d50;fill-opacity:1;stroke-width:0.22159271"
           id="path1041"
           inkscape:connector-curvature="0" />
        <path
           d="m 84.668101,223.21445 q 0.606277,0 0.893461,-0.15955 0.297821,-0.15954 0.297821,-0.51054 0,-0.36164 -0.287184,-0.57437 -0.287184,-0.21273 -0.946644,-0.47864 -0.319094,-0.12764 -0.616914,-0.25528 -0.287184,-0.13827 -0.499913,-0.31909 -0.212729,-0.18082 -0.340367,-0.4361 -0.127637,-0.25527 -0.127637,-0.62755 0,-0.73391 0.542459,-1.15937 0.542459,-0.43609 1.478466,-0.43609 0.234002,0 0.468004,0.0319 0.234002,0.0213 0.436095,0.0638 0.202092,0.0319 0.351002,0.0745 0.159547,0.0425 0.244639,0.0744 l -0.18082,0.85092 q -0.159547,-0.0851 -0.499913,-0.17018 -0.340366,-0.0957 -0.819007,-0.0957 -0.414821,0 -0.723278,0.17018 -0.308457,0.15955 -0.308457,0.51055 0,0.18082 0.06382,0.3191 0.07446,0.13827 0.212729,0.25527 0.148911,0.10636 0.36164,0.20209 0.212729,0.0957 0.510549,0.2021 0.393549,0.14891 0.702006,0.29782 0.308457,0.13827 0.521186,0.32973 0.223365,0.19145 0.340366,0.468 0.117001,0.26591 0.117001,0.65946 0,0.76582 -0.574368,1.15937 -0.563732,0.39355 -1.61674,0.39355 -0.733915,0 -1.148737,-0.12764 -0.414821,-0.117 -0.563732,-0.18082 l 0.18082,-0.85091 q 0.170183,0.0638 0.542459,0.19145 0.372276,0.12764 0.98919,0.12764 z"
           style="font-style:normal;font-variant:normal;font-weight:normal;font-stretch:normal;font-size:10.63644981px;font-family:Ubuntu;-inkscape-font-specification:'Ubuntu, Normal';font-variant-ligatures:normal;font-variant-caps:normal;font-variant-numeric:normal;font-feature-settings:normal;text-align:start;writing-mode:lr-tb;text-anchor:start;fill:#162d50;fill-opacity:1;stroke-width:0.22159271"
           id="path1043"
           inkscape:connector-curvature="0" />
        <path
           d="m 91.425572,223.92709 q -0.117001,-0.234 -0.287184,-0.52118 -0.170184,-0.28719 -0.372276,-0.58501 -0.202093,-0.30845 -0.414822,-0.60627 -0.212729,-0.29783 -0.414821,-0.56374 -0.202093,0.26591 -0.414822,0.57437 -0.212729,0.29782 -0.414821,0.60628 -0.191456,0.29782 -0.36164,0.585 -0.170183,0.28719 -0.287184,0.51055 h -1.021099 q 0.372276,-0.72328 0.882825,-1.46783 0.521186,-0.75518 1.031736,-1.43592 l -1.829469,-2.6272 h 1.116827 l 1.31892,1.93583 1.329556,-1.93583 h 1.053008 l -1.786923,2.56338 q 0.510549,0.69137 1.042372,1.46783 0.542459,0.76583 0.914735,1.49974 z"
           style="font-style:normal;font-variant:normal;font-weight:normal;font-stretch:normal;font-size:10.63644981px;font-family:Ubuntu;-inkscape-font-specification:'Ubuntu, Normal';font-variant-ligatures:normal;font-variant-caps:normal;font-variant-numeric:normal;font-feature-settings:normal;text-align:start;writing-mode:lr-tb;text-anchor:start;fill:#162d50;fill-opacity:1;stroke-width:0.22159271"
           id="path1045"
           inkscape:connector-curvature="0" />
        <path
           d="m 100.04874,223.46973 q -0.340365,0 -0.563731,-0.0957 -0.223365,-0.0957 -0.372275,-0.25528 -0.234002,0.12764 -0.563732,0.22337 -0.32973,0.0851 -0.65946,0.0851 -0.51055,0 -0.936008,-0.15955 -0.414821,-0.15954 -0.723278,-0.468 -0.308457,-0.31909 -0.47864,-0.77646 -0.170184,-0.45737 -0.170184,-1.06365 0,-0.51055 0.159547,-0.95728 0.159547,-0.45736 0.468004,-0.78709 0.319093,-0.34037 0.765824,-0.53183 0.457368,-0.19145 1.031736,-0.19145 0.542459,0 0.98919,0.0851 0.457367,0.0851 0.702005,0.17018 v 3.25476 q 0,0.34036 0.117001,0.47864 0.117001,0.13827 0.308461,0.13827 0.27654,0 0.47864,-0.19146 0.21273,-0.19145 0.34036,-0.49991 0.13828,-0.30846 0.2021,-0.69137 0.0638,-0.39355 0.0638,-0.79773 0,-0.6701 -0.234,-1.2551 -0.234,-0.59564 -0.67009,-1.04238 -0.436098,-0.44673 -1.063649,-0.702 -0.616914,-0.25528 -1.393375,-0.25528 -0.776461,0 -1.425284,0.26592 -0.648824,0.25527 -1.116827,0.74455 -0.468004,0.47864 -0.733915,1.18064 -0.255275,0.70201 -0.255275,1.59547 0,0.93601 0.276548,1.64865 0.276547,0.70201 0.765824,1.18065 0.499913,0.468 1.170009,0.702 0.680733,0.24464 1.489103,0.24464 0.627551,0 1.031736,-0.0745 0.414822,-0.0744 0.531822,-0.117 l 0.106365,0.7871 q -0.18082,0.0638 -0.65946,0.13828 -0.468004,0.0745 -1.010463,0.0745 -0.946644,0 -1.786923,-0.27655 -0.84028,-0.26591 -1.46783,-0.82964 -0.627551,-0.5531 -0.999827,-1.41465 -0.361639,-0.87219 -0.361639,-2.06347 0,-1.14874 0.361639,-2.01029 0.36164,-0.86155 0.967917,-1.42528 0.616914,-0.57437 1.414648,-0.86156 0.80837,-0.28718 1.701832,-0.28718 0.872189,0 1.64865,0.28718 0.776464,0.27655 1.361464,0.81901 0.58501,0.53182 0.92537,1.29765 0.34037,0.75519 0.34037,1.71247 0,0.72328 -0.17018,1.27637 -0.15955,0.5531 -0.4361,0.93601 -0.27655,0.37227 -0.65946,0.56373 -0.38291,0.19146 -0.80837,0.19146 z m -2.127289,-0.86156 q 0.223366,0 0.446731,-0.0425 0.234002,-0.0532 0.414822,-0.14891 -0.03191,-0.13828 -0.04255,-0.27655 -0.01064,-0.13827 -0.01064,-0.26591 v -2.49957 q -0.06382,-0.0213 -0.244639,-0.0425 -0.180819,-0.0213 -0.404185,-0.0213 -0.755188,0 -1.127464,0.46801 -0.372275,0.468 -0.372275,1.18064 0,0.75519 0.361639,1.20192 0.361639,0.44673 0.978553,0.44673 z"
           style="font-style:normal;font-variant:normal;font-weight:normal;font-stretch:normal;font-size:10.63644981px;font-family:Ubuntu;-inkscape-font-specification:'Ubuntu, Normal';font-variant-ligatures:normal;font-variant-caps:normal;font-variant-numeric:normal;font-feature-settings:normal;text-align:start;writing-mode:lr-tb;text-anchor:start;fill:#162d50;fill-opacity:1;stroke-width:0.22159271"
           id="path1047"
           inkscape:connector-curvature="0" />
        <path
           d="m 107.12431,223.374 q -0.12764,0.0851 -0.49992,0.22336 -0.36164,0.12764 -0.85091,0.12764 -0.49992,0 -0.94665,-0.15955 -0.43609,-0.15954 -0.76582,-0.48927 -0.32973,-0.34037 -0.52119,-0.84028 -0.19145,-0.49992 -0.19145,-1.19128 0,-0.60628 0.18082,-1.1062 0.18082,-0.51054 0.52118,-0.87218 0.35101,-0.37228 0.85092,-0.57437 0.49991,-0.21273 1.12746,-0.21273 0.69137,0 1.20192,0.10636 0.52119,0.0957 0.87219,0.18082 v 4.93532 q 0,1.27637 -0.65946,1.85074 -0.65946,0.57437 -1.99965,0.57437 -0.52119,0 -0.98919,-0.0851 -0.45737,-0.0851 -0.79774,-0.20209 l 0.18082,-0.86155 q 0.29782,0.117 0.72328,0.20209 0.4361,0.0957 0.9041,0.0957 0.88283,0 1.26574,-0.351 0.39355,-0.35101 0.39355,-1.11683 z m -0.0106,-4.10567 q -0.14891,-0.0426 -0.40418,-0.0745 -0.24464,-0.0425 -0.6701,-0.0425 -0.79773,0 -1.23383,0.52118 -0.42546,0.52119 -0.42546,1.38274 0,0.47864 0.117,0.81901 0.12764,0.34037 0.32973,0.56373 0.21273,0.22337 0.47864,0.32973 0.27655,0.10636 0.56374,0.10636 0.39354,0 0.72327,-0.10636 0.32973,-0.117 0.52119,-0.26591 z"
           style="font-style:normal;font-variant:normal;font-weight:normal;font-stretch:normal;font-size:10.63644981px;font-family:Ubuntu;-inkscape-font-specification:'Ubuntu, Normal';font-variant-ligatures:normal;font-variant-caps:normal;font-variant-numeric:normal;font-feature-settings:normal;text-align:start;writing-mode:lr-tb;text-anchor:start;fill:#162d50;fill-opacity:1;stroke-width:0.22159271"
           id="path1049"
           inkscape:connector-curvature="0" />
        <path
           d="m 109.80602,218.55569 q 0.34037,-0.0851 0.89346,-0.18082 0.56373,-0.0957 1.29765,-0.0957 0.53182,0 0.89346,0.14891 0.36164,0.13827 0.60628,0.41482 0.0744,-0.0532 0.234,-0.14891 0.15955,-0.0957 0.39355,-0.18082 0.234,-0.0957 0.52119,-0.15955 0.28718,-0.0744 0.61691,-0.0744 0.63819,0 1.04237,0.19145 0.40419,0.18082 0.62755,0.52119 0.234,0.34037 0.30846,0.80837 0.0851,0.468 0.0851,1.0211 v 3.10584 h -0.98919 v -2.89311 q 0,-0.48928 -0.0532,-0.84028 -0.0426,-0.351 -0.18082,-0.58501 -0.12764,-0.234 -0.36164,-0.34036 -0.22337,-0.117 -0.585,-0.117 -0.49992,0 -0.82965,0.13827 -0.31909,0.12764 -0.43609,0.234 0.0851,0.27655 0.12763,0.60628 0.0425,0.32973 0.0425,0.69137 v 3.10584 h -0.98919 v -2.89311 q 0,-0.48928 -0.0532,-0.84028 -0.0532,-0.351 -0.19146,-0.58501 -0.12763,-0.234 -0.36164,-0.34036 -0.22336,-0.117 -0.57437,-0.117 -0.14891,0 -0.31909,0.0106 -0.17018,0.0106 -0.32973,0.0319 -0.14891,0.0106 -0.27655,0.0319 -0.12763,0.0213 -0.17018,0.0319 v 4.6694 h -0.98919 z"
           style="font-style:normal;font-variant:normal;font-weight:normal;font-stretch:normal;font-size:10.63644981px;font-family:Ubuntu;-inkscape-font-specification:'Ubuntu, Normal';font-variant-ligatures:normal;font-variant-caps:normal;font-variant-numeric:normal;font-feature-settings:normal;text-align:start;writing-mode:lr-tb;text-anchor:start;fill:#162d50;fill-opacity:1;stroke-width:0.22159271"
           id="path1051"
           inkscape:connector-curvature="0" />
        <path
           d="m 120.83951,223.21445 q 0.351,0 0.61692,-0.0106 0.27654,-0.0213 0.45736,-0.0638 v -1.64865 q -0.10636,-0.0532 -0.351,-0.0851 -0.234,-0.0425 -0.57437,-0.0425 -0.22336,0 -0.47864,0.0319 -0.24464,0.0319 -0.45737,0.13827 -0.20209,0.0957 -0.34036,0.27655 -0.13828,0.17018 -0.13828,0.45737 0,0.53182 0.34037,0.74455 0.34037,0.20209 0.92537,0.20209 z m -0.0851,-4.95658 q 0.59564,0 0.99983,0.15954 0.41482,0.14891 0.65946,0.4361 0.25527,0.27654 0.36164,0.67009 0.10636,0.38292 0.10636,0.85092 v 3.45685 q -0.12764,0.0213 -0.36164,0.0638 -0.22336,0.0319 -0.51055,0.0638 -0.28718,0.0319 -0.62755,0.0532 -0.32973,0.0319 -0.65946,0.0319 -0.468,0 -0.86155,-0.0957 -0.39355,-0.0957 -0.68073,-0.29782 -0.28719,-0.21273 -0.44673,-0.5531 -0.15955,-0.34037 -0.15955,-0.81901 0,-0.45736 0.18082,-0.78709 0.19145,-0.32973 0.51055,-0.53183 0.31909,-0.20209 0.74455,-0.29782 0.42546,-0.0957 0.89346,-0.0957 0.14891,0 0.30846,0.0213 0.15954,0.0106 0.29782,0.0425 0.14891,0.0213 0.25527,0.0425 0.10637,0.0213 0.14891,0.0319 v -0.27655 q 0,-0.24464 -0.0532,-0.47864 -0.0532,-0.24464 -0.19145,-0.42546 -0.13828,-0.19145 -0.38292,-0.29782 -0.234,-0.117 -0.61691,-0.117 -0.48928,0 -0.86155,0.0745 -0.36164,0.0638 -0.54246,0.13827 l -0.117,-0.81901 q 0.19145,-0.0851 0.63818,-0.15954 0.44673,-0.0851 0.96792,-0.0851 z"
           style="font-style:normal;font-variant:normal;font-weight:normal;font-stretch:normal;font-size:10.63644981px;font-family:Ubuntu;-inkscape-font-specification:'Ubuntu, Normal';font-variant-ligatures:normal;font-variant-caps:normal;font-variant-numeric:normal;font-feature-settings:normal;text-align:start;writing-mode:lr-tb;text-anchor:start;fill:#162d50;fill-opacity:1;stroke-width:0.22159271"
           id="path1053"
           inkscape:connector-curvature="0" />
        <path
           d="m 125.50342,223.92709 h -0.98919 v -5.53095 h 0.98919 z m -0.49991,-6.53078 q -0.26591,0 -0.45737,-0.17018 -0.18082,-0.18082 -0.18082,-0.47864 0,-0.29782 0.18082,-0.468 0.19146,-0.18082 0.45737,-0.18082 0.26591,0 0.44673,0.18082 0.19146,0.17018 0.19146,0.468 0,0.29782 -0.19146,0.47864 -0.18082,0.17018 -0.44673,0.17018 z"
           style="font-style:normal;font-variant:normal;font-weight:normal;font-stretch:normal;font-size:10.63644981px;font-family:Ubuntu;-inkscape-font-specification:'Ubuntu, Normal';font-variant-ligatures:normal;font-variant-caps:normal;font-variant-numeric:normal;font-feature-settings:normal;text-align:start;writing-mode:lr-tb;text-anchor:start;fill:#162d50;fill-opacity:1;stroke-width:0.22159271"
           id="path1055"
           inkscape:connector-curvature="0" />
        <path
           d="m 128.87418,224.03346 q -0.91473,-0.0213 -1.29765,-0.39355 -0.38291,-0.37228 -0.38291,-1.15937 v -6.63715 l 0.98919,-0.17018 v 6.64778 q 0,0.24464 0.0426,0.40418 0.0425,0.15955 0.13827,0.25528 0.0957,0.0957 0.25528,0.14891 0.15954,0.0426 0.39355,0.0745 z"
           style="font-style:normal;font-variant:normal;font-weight:normal;font-stretch:normal;font-size:10.63644981px;font-family:Ubuntu;-inkscape-font-specification:'Ubuntu, Normal';font-variant-ligatures:normal;font-variant-caps:normal;font-variant-numeric:normal;font-feature-settings:normal;text-align:start;writing-mode:lr-tb;text-anchor:start;fill:#162d50;fill-opacity:1;stroke-width:0.22159271"
           id="path1057"
           inkscape:connector-curvature="0" />
        <path
           d="m 131.29331,223.35273 q 0,0.28718 -0.19145,0.49991 -0.19146,0.21273 -0.52119,0.21273 -0.32973,0 -0.52118,-0.21273 -0.19146,-0.21273 -0.19146,-0.49991 0,-0.28719 0.19146,-0.49992 0.19145,-0.21273 0.52118,-0.21273 0.32973,0 0.52119,0.21273 0.19145,0.21273 0.19145,0.49992 z"
           style="font-style:normal;font-variant:normal;font-weight:normal;font-stretch:normal;font-size:10.63644981px;font-family:Ubuntu;-inkscape-font-specification:'Ubuntu, Normal';font-variant-ligatures:normal;font-variant-caps:normal;font-variant-numeric:normal;font-feature-settings:normal;text-align:start;writing-mode:lr-tb;text-anchor:start;fill:#162d50;fill-opacity:1;stroke-width:0.22159271"
           id="path1059"
           inkscape:connector-curvature="0" />
        <path
           d="m 135.1447,224.05473 q -0.67009,0 -1.18064,-0.21273 -0.49992,-0.21273 -0.85092,-0.59564 -0.34036,-0.38291 -0.51055,-0.9041 -0.17018,-0.53182 -0.17018,-1.17001 0,-0.63818 0.18082,-1.17001 0.19145,-0.53182 0.53182,-0.91473 0.34037,-0.39355 0.82964,-0.60628 0.49992,-0.22336 1.10619,-0.22336 0.37228,0 0.74456,0.0638 0.37227,0.0638 0.71264,0.2021 l -0.22337,0.84028 q -0.22336,-0.10637 -0.52118,-0.17019 -0.28719,-0.0638 -0.61692,-0.0638 -0.82964,0 -1.27637,0.52119 -0.4361,0.52119 -0.4361,1.52101 0,0.44673 0.0957,0.81901 0.10637,0.37228 0.3191,0.63819 0.22336,0.26591 0.56373,0.41482 0.34036,0.13827 0.82964,0.13827 0.39355,0 0.71264,-0.0744 0.3191,-0.0745 0.49992,-0.15955 l 0.13827,0.82964 q -0.0851,0.0532 -0.24464,0.10637 -0.15955,0.0425 -0.36164,0.0745 -0.20209,0.0426 -0.43609,0.0638 -0.22337,0.0319 -0.4361,0.0319 z"
           style="font-style:normal;font-variant:normal;font-weight:normal;font-stretch:normal;font-size:10.63644981px;font-family:Ubuntu;-inkscape-font-specification:'Ubuntu, Normal';font-variant-ligatures:normal;font-variant-caps:normal;font-variant-numeric:normal;font-feature-settings:normal;text-align:start;writing-mode:lr-tb;text-anchor:start;fill:#162d50;fill-opacity:1;stroke-width:0.22159271"
           id="path1061"
           inkscape:connector-curvature="0" />
        <path
           d="m 142.42186,221.16162 q 0,0.65946 -0.19145,1.19128 -0.19146,0.53182 -0.54246,0.91473 -0.34037,0.38292 -0.81901,0.59564 -0.47864,0.2021 -1.04237,0.2021 -0.56373,0 -1.04237,-0.2021 -0.47864,-0.21272 -0.82965,-0.59564 -0.34036,-0.38291 -0.53182,-0.91473 -0.19145,-0.53182 -0.19145,-1.19128 0,-0.64883 0.19145,-1.18065 0.19146,-0.54246 0.53182,-0.92537 0.35101,-0.38291 0.82965,-0.58501 0.47864,-0.21272 1.04237,-0.21272 0.56373,0 1.04237,0.21272 0.47864,0.2021 0.81901,0.58501 0.351,0.38291 0.54246,0.92537 0.19145,0.53182 0.19145,1.18065 z m -1.03173,0 q 0,-0.93601 -0.42546,-1.47847 -0.41482,-0.5531 -1.1381,-0.5531 -0.72328,0 -1.14874,0.5531 -0.41482,0.54246 -0.41482,1.47847 0,0.936 0.41482,1.4891 0.42546,0.54246 1.14874,0.54246 0.72328,0 1.1381,-0.54246 0.42546,-0.5531 0.42546,-1.4891 z"
           style="font-style:normal;font-variant:normal;font-weight:normal;font-stretch:normal;font-size:10.63644981px;font-family:Ubuntu;-inkscape-font-specification:'Ubuntu, Normal';font-variant-ligatures:normal;font-variant-caps:normal;font-variant-numeric:normal;font-feature-settings:normal;text-align:start;writing-mode:lr-tb;text-anchor:start;fill:#162d50;fill-opacity:1;stroke-width:0.22159271"
           id="path1063"
           inkscape:connector-curvature="0" />
        <path
           d="m 143.81357,218.55569 q 0.34037,-0.0851 0.89347,-0.18082 0.56373,-0.0957 1.29764,-0.0957 0.53183,0 0.89346,0.14891 0.36164,0.13827 0.60628,0.41482 0.0745,-0.0532 0.234,-0.14891 0.15955,-0.0957 0.39355,-0.18082 0.234,-0.0957 0.52119,-0.15955 0.28718,-0.0744 0.61691,-0.0744 0.63819,0 1.04237,0.19145 0.40419,0.18082 0.62756,0.52119 0.234,0.34037 0.30845,0.80837 0.0851,0.468 0.0851,1.0211 v 3.10584 h -0.98919 v -2.89311 q 0,-0.48928 -0.0532,-0.84028 -0.0425,-0.351 -0.18082,-0.58501 -0.12764,-0.234 -0.36164,-0.34036 -0.22336,-0.117 -0.585,-0.117 -0.49991,0 -0.82964,0.13827 -0.3191,0.12764 -0.4361,0.234 0.0851,0.27655 0.12764,0.60628 0.0425,0.32973 0.0425,0.69137 v 3.10584 h -0.98919 v -2.89311 q 0,-0.48928 -0.0532,-0.84028 -0.0532,-0.351 -0.19145,-0.58501 -0.12764,-0.234 -0.36164,-0.34036 -0.22337,-0.117 -0.57437,-0.117 -0.14891,0 -0.3191,0.0106 -0.17018,0.0106 -0.32973,0.0319 -0.14891,0.0106 -0.27654,0.0319 -0.12764,0.0213 -0.17019,0.0319 v 4.6694 h -0.98919 z"
           style="font-style:normal;font-variant:normal;font-weight:normal;font-stretch:normal;font-size:10.63644981px;font-family:Ubuntu;-inkscape-font-specification:'Ubuntu, Normal';font-variant-ligatures:normal;font-variant-caps:normal;font-variant-numeric:normal;font-feature-settings:normal;text-align:start;writing-mode:lr-tb;text-anchor:start;fill:#162d50;fill-opacity:1;stroke-width:0.22159271"
           id="path1065"
           inkscape:connector-curvature="0" />
      </g>
      <g
         aria-label="(This text is an image to avoid spam)"
         style="font-style:normal;font-variant:normal;font-weight:300;font-stretch:normal;font-size:3.77524114px;line-height:4.29004669px;font-family:Ubuntu;-inkscape-font-specification:'Ubuntu, Light';font-variant-ligatures:normal;font-variant-caps:normal;font-variant-numeric:normal;font-feature-settings:normal;text-align:start;letter-spacing:0px;word-spacing:0px;writing-mode:lr-tb;text-anchor:start;fill:#939dac;fill-opacity:1;stroke:none;stroke-width:0.17160186"
         id="text4528">
        <path
           d="m 71.638716,231.23253 q 0,-0.54741 0.177436,-1.00799 0.181212,-0.46058 0.46813,-0.81923 l 0.177436,0.12081 q -0.298244,0.36998 -0.437928,0.78525 -0.135908,0.4115 -0.135908,0.92116 0,0.50966 0.135908,0.92494 0.139684,0.4115 0.437928,0.78147 l -0.177436,0.12081 q -0.286918,-0.35865 -0.46813,-0.81923 -0.177436,-0.46058 -0.177436,-1.00799 z"
           style="font-style:normal;font-variant:normal;font-weight:300;font-stretch:normal;font-size:3.77524114px;font-family:Ubuntu;-inkscape-font-specification:'Ubuntu, Light';font-variant-ligatures:normal;font-variant-caps:normal;font-variant-numeric:normal;font-feature-settings:normal;text-align:start;writing-mode:lr-tb;text-anchor:start;fill:#939dac;fill-opacity:1;stroke-width:0.17160186"
           id="path1068"
           inkscape:connector-curvature="0" />
        <path
           d="m 74.542879,229.74509 v 0.22274 h -0.838103 v 2.3935 h -0.256717 v -2.3935 h -0.838103 v -0.22274 z"
           style="font-style:normal;font-variant:normal;font-weight:300;font-stretch:normal;font-size:3.77524114px;font-family:Ubuntu;-inkscape-font-specification:'Ubuntu, Light';font-variant-ligatures:normal;font-variant-caps:normal;font-variant-numeric:normal;font-feature-settings:normal;text-align:start;writing-mode:lr-tb;text-anchor:start;fill:#939dac;fill-opacity:1;stroke-width:0.17160186"
           id="path1070"
           inkscape:connector-curvature="0" />
        <path
           d="m 74.938631,232.36133 v -2.88429 l 0.24539,-0.0453 v 1.03442 q 0.120808,-0.0453 0.245391,-0.068 0.124583,-0.0264 0.249166,-0.0264 0.226514,0 0.377524,0.0642 0.15101,0.0642 0.241615,0.18498 0.09061,0.11703 0.124583,0.28315 0.03775,0.16611 0.03775,0.36619 v 1.09105 h -0.245391 v -1.01177 q 0,-0.20763 -0.0302,-0.35109 -0.02643,-0.14346 -0.09438,-0.23407 -0.06418,-0.0906 -0.173661,-0.12836 -0.109482,-0.0415 -0.275593,-0.0415 -0.06418,0 -0.139684,0.0113 -0.07173,0.0113 -0.135908,0.0264 -0.06418,0.0113 -0.117033,0.0264 -0.04908,0.0151 -0.06418,0.0227 v 1.67998 z"
           style="font-style:normal;font-variant:normal;font-weight:300;font-stretch:normal;font-size:3.77524114px;font-family:Ubuntu;-inkscape-font-specification:'Ubuntu, Light';font-variant-ligatures:normal;font-variant-caps:normal;font-variant-numeric:normal;font-feature-settings:normal;text-align:start;writing-mode:lr-tb;text-anchor:start;fill:#939dac;fill-opacity:1;stroke-width:0.17160186"
           id="path1072"
           inkscape:connector-curvature="0" />
        <path
           d="m 77.329715,232.36133 h -0.245391 v -1.9518 h 0.245391 z m 0.05663,-2.54074 q 0,0.0868 -0.05285,0.13968 -0.05285,0.0491 -0.128358,0.0491 -0.07551,0 -0.128358,-0.0491 -0.05285,-0.0529 -0.05285,-0.13968 0,-0.0868 0.05285,-0.13591 0.05285,-0.0528 0.128358,-0.0528 0.0755,0 0.128358,0.0528 0.05285,0.0491 0.05285,0.13591 z"
           style="font-style:normal;font-variant:normal;font-weight:300;font-stretch:normal;font-size:3.77524114px;font-family:Ubuntu;-inkscape-font-specification:'Ubuntu, Light';font-variant-ligatures:normal;font-variant-caps:normal;font-variant-numeric:normal;font-feature-settings:normal;text-align:start;writing-mode:lr-tb;text-anchor:start;fill:#939dac;fill-opacity:1;stroke-width:0.17160186"
           id="path1074"
           inkscape:connector-curvature="0" />
        <path
           d="m 78.376696,232.18767 q 0.211413,0 0.347322,-0.068 0.139684,-0.0717 0.139684,-0.23784 0,-0.0793 -0.02643,-0.13591 -0.02265,-0.0566 -0.07928,-0.10193 -0.05663,-0.0453 -0.15101,-0.0868 -0.09061,-0.0415 -0.226514,-0.0982 -0.109482,-0.0453 -0.207638,-0.0906 -0.09816,-0.0491 -0.173662,-0.10948 -0.0755,-0.0642 -0.120807,-0.15101 -0.0453,-0.0868 -0.0453,-0.21142 0,-0.23784 0.177436,-0.38507 0.181212,-0.14723 0.494557,-0.14723 0.200088,0 0.328446,0.034 0.132133,0.034 0.184987,0.0604 l -0.05663,0.21896 q -0.0453,-0.0226 -0.154785,-0.0604 -0.105707,-0.0378 -0.313345,-0.0378 -0.08306,0 -0.15856,0.0189 -0.07173,0.0151 -0.128358,0.0529 -0.05663,0.034 -0.09061,0.0906 -0.03398,0.0529 -0.03398,0.13213 0,0.0793 0.0302,0.13591 0.0302,0.0566 0.08683,0.10193 0.0604,0.0415 0.143459,0.0793 0.08683,0.0378 0.196313,0.0831 0.113257,0.0453 0.215189,0.0944 0.105706,0.0453 0.184986,0.11326 0.07928,0.0642 0.128359,0.15856 0.04908,0.0906 0.04908,0.23029 0,0.26426 -0.200088,0.40017 -0.196312,0.13591 -0.539859,0.13591 -0.256717,0 -0.392626,-0.0453 -0.135908,-0.0415 -0.181211,-0.0642 l 0.06418,-0.22274 q 0.01133,0.008 0.04908,0.0264 0.03775,0.0151 0.101932,0.0377 0.06418,0.0189 0.151009,0.034 0.09061,0.0151 0.207639,0.0151 z"
           style="font-style:normal;font-variant:normal;font-weight:300;font-stretch:normal;font-size:3.77524114px;font-family:Ubuntu;-inkscape-font-specification:'Ubuntu, Light';font-variant-ligatures:normal;font-variant-caps:normal;font-variant-numeric:normal;font-feature-settings:normal;text-align:start;writing-mode:lr-tb;text-anchor:start;fill:#939dac;fill-opacity:1;stroke-width:0.17160186"
           id="path1076"
           inkscape:connector-curvature="0" />
        <path
           d="m 80.684312,230.40953 h 0.7777 v 0.20764 h -0.7777 v 1.03819 q 0,0.16611 0.02643,0.27182 0.0302,0.10193 0.08306,0.15856 0.05285,0.0566 0.128358,0.0755 0.07551,0.0189 0.166111,0.0189 0.154785,0 0.249166,-0.034 0.09438,-0.0377 0.147234,-0.0679 l 0.0604,0.20386 q -0.05285,0.034 -0.184987,0.0793 -0.132133,0.0415 -0.286918,0.0415 -0.181212,0 -0.305795,-0.0453 -0.120807,-0.0491 -0.196312,-0.14346 -0.07173,-0.0982 -0.101932,-0.24161 -0.0302,-0.14346 -0.0302,-0.33977 v -1.79702 l 0.245391,-0.0453 z"
           style="font-style:normal;font-variant:normal;font-weight:300;font-stretch:normal;font-size:3.77524114px;font-family:Ubuntu;-inkscape-font-specification:'Ubuntu, Light';font-variant-ligatures:normal;font-variant-caps:normal;font-variant-numeric:normal;font-feature-settings:normal;text-align:start;writing-mode:lr-tb;text-anchor:start;fill:#939dac;fill-opacity:1;stroke-width:0.17160186"
           id="path1078"
           inkscape:connector-curvature="0" />
        <path
           d="m 81.796946,231.38354 q 0,-0.25672 0.07173,-0.44548 0.0755,-0.19254 0.192537,-0.32089 0.120808,-0.12836 0.271817,-0.18877 0.154785,-0.0642 0.317121,-0.0642 0.358647,0 0.570061,0.23406 0.215189,0.23407 0.215189,0.72107 0,0.0302 -0.0038,0.0604 0,0.0302 -0.0038,0.0566 h -1.370412 q 0.01132,0.35865 0.177436,0.55119 0.166111,0.19254 0.528534,0.19254 0.200088,0 0.31712,-0.0378 0.117033,-0.0377 0.169886,-0.0642 l 0.0453,0.21141 q -0.05285,0.0302 -0.200088,0.0717 -0.143459,0.0415 -0.339772,0.0415 -0.256716,0 -0.437928,-0.0755 -0.181211,-0.0755 -0.298244,-0.21141 -0.117032,-0.13591 -0.169886,-0.3209 -0.05285,-0.18876 -0.05285,-0.4115 z m 1.385514,-0.15478 q -0.0076,-0.3058 -0.14346,-0.47568 -0.135908,-0.16989 -0.385074,-0.16989 -0.132134,0 -0.23784,0.0529 -0.101932,0.0529 -0.181212,0.14346 -0.07551,0.0868 -0.120808,0.20387 -0.04153,0.11703 -0.04908,0.24539 z"
           style="font-style:normal;font-variant:normal;font-weight:300;font-stretch:normal;font-size:3.77524114px;font-family:Ubuntu;-inkscape-font-specification:'Ubuntu, Light';font-variant-ligatures:normal;font-variant-caps:normal;font-variant-numeric:normal;font-feature-settings:normal;text-align:start;writing-mode:lr-tb;text-anchor:start;fill:#939dac;fill-opacity:1;stroke-width:0.17160186"
           id="path1080"
           inkscape:connector-curvature="0" />
        <path
           d="m 84.597526,231.47792 q -0.08306,0.10948 -0.16611,0.23029 -0.08306,0.12081 -0.162336,0.23784 -0.07551,0.11703 -0.139684,0.22652 -0.06418,0.1057 -0.109482,0.18876 h -0.252941 q 0.154785,-0.2907 0.324671,-0.53986 0.169886,-0.25294 0.347322,-0.49456 l -0.634241,-0.91738 h 0.286919 l 0.505882,0.7475 0.513433,-0.7475 h 0.268042 l -0.622915,0.90228 q 0.07928,0.10571 0.169886,0.23029 0.09061,0.12458 0.181212,0.26049 0.0906,0.13214 0.173661,0.2756 0.08683,0.14345 0.15856,0.28314 h -0.264267 q -0.0453,-0.0831 -0.109482,-0.18876 -0.06418,-0.10949 -0.143459,-0.22652 -0.0755,-0.11703 -0.162336,-0.23784 -0.08306,-0.12081 -0.162335,-0.23029 z"
           style="font-style:normal;font-variant:normal;font-weight:300;font-stretch:normal;font-size:3.77524114px;font-family:Ubuntu;-inkscape-font-specification:'Ubuntu, Light';font-variant-ligatures:normal;font-variant-caps:normal;font-variant-numeric:normal;font-feature-settings:normal;text-align:start;writing-mode:lr-tb;text-anchor:start;fill:#939dac;fill-opacity:1;stroke-width:0.17160186"
           id="path1082"
           inkscape:connector-curvature="0" />
        <path
           d="m 86.096474,230.40953 h 0.7777 v 0.20764 h -0.7777 v 1.03819 q 0,0.16611 0.02643,0.27182 0.0302,0.10193 0.08306,0.15856 0.05285,0.0566 0.128358,0.0755 0.0755,0.0189 0.166111,0.0189 0.154785,0 0.249166,-0.034 0.09438,-0.0377 0.147234,-0.0679 l 0.0604,0.20386 q -0.05285,0.034 -0.184987,0.0793 -0.132133,0.0415 -0.286918,0.0415 -0.181212,0 -0.305795,-0.0453 -0.120808,-0.0491 -0.196312,-0.14346 -0.07173,-0.0982 -0.101932,-0.24161 -0.0302,-0.14346 -0.0302,-0.33977 v -1.79702 l 0.245391,-0.0453 z"
           style="font-style:normal;font-variant:normal;font-weight:300;font-stretch:normal;font-size:3.77524114px;font-family:Ubuntu;-inkscape-font-specification:'Ubuntu, Light';font-variant-ligatures:normal;font-variant-caps:normal;font-variant-numeric:normal;font-feature-settings:normal;text-align:start;writing-mode:lr-tb;text-anchor:start;fill:#939dac;fill-opacity:1;stroke-width:0.17160186"
           id="path1084"
           inkscape:connector-curvature="0" />
        <path
           d="m 88.434233,232.36133 h -0.24539 v -1.9518 h 0.24539 z m 0.05663,-2.54074 q 0,0.0868 -0.05285,0.13968 -0.05285,0.0491 -0.128359,0.0491 -0.0755,0 -0.128358,-0.0491 -0.05285,-0.0529 -0.05285,-0.13968 0,-0.0868 0.05285,-0.13591 0.05285,-0.0528 0.128358,-0.0528 0.0755,0 0.128359,0.0528 0.05285,0.0491 0.05285,0.13591 z"
           style="font-style:normal;font-variant:normal;font-weight:300;font-stretch:normal;font-size:3.77524114px;font-family:Ubuntu;-inkscape-font-specification:'Ubuntu, Light';font-variant-ligatures:normal;font-variant-caps:normal;font-variant-numeric:normal;font-feature-settings:normal;text-align:start;writing-mode:lr-tb;text-anchor:start;fill:#939dac;fill-opacity:1;stroke-width:0.17160186"
           id="path1086"
           inkscape:connector-curvature="0" />
        <path
           d="m 89.481213,232.18767 q 0.211414,0 0.347322,-0.068 0.139684,-0.0717 0.139684,-0.23784 0,-0.0793 -0.02643,-0.13591 -0.02265,-0.0566 -0.07928,-0.10193 -0.05663,-0.0453 -0.151009,-0.0868 -0.09061,-0.0415 -0.226515,-0.0982 -0.109482,-0.0453 -0.207638,-0.0906 -0.09816,-0.0491 -0.173661,-0.10948 -0.07551,-0.0642 -0.120808,-0.15101 -0.0453,-0.0868 -0.0453,-0.21142 0,-0.23784 0.177437,-0.38507 0.181211,-0.14723 0.494556,-0.14723 0.200088,0 0.328446,0.034 0.132134,0.034 0.184987,0.0604 l -0.05663,0.21896 q -0.0453,-0.0226 -0.154784,-0.0604 -0.105707,-0.0378 -0.313345,-0.0378 -0.08306,0 -0.158561,0.0189 -0.07173,0.0151 -0.128358,0.0529 -0.05663,0.034 -0.09061,0.0906 -0.03398,0.0529 -0.03398,0.13213 0,0.0793 0.0302,0.13591 0.0302,0.0566 0.08683,0.10193 0.0604,0.0415 0.143459,0.0793 0.08683,0.0378 0.196312,0.0831 0.113258,0.0453 0.215189,0.0944 0.105707,0.0453 0.184987,0.11326 0.07928,0.0642 0.128358,0.15856 0.04908,0.0906 0.04908,0.23029 0,0.26426 -0.200087,0.40017 -0.196313,0.13591 -0.53986,0.13591 -0.256716,0 -0.392625,-0.0453 -0.135909,-0.0415 -0.181212,-0.0642 l 0.06418,-0.22274 q 0.01133,0.008 0.04908,0.0264 0.03775,0.0151 0.101931,0.0377 0.06418,0.0189 0.15101,0.034 0.09061,0.0151 0.207638,0.0151 z"
           style="font-style:normal;font-variant:normal;font-weight:300;font-stretch:normal;font-size:3.77524114px;font-family:Ubuntu;-inkscape-font-specification:'Ubuntu, Light';font-variant-ligatures:normal;font-variant-caps:normal;font-variant-numeric:normal;font-feature-settings:normal;text-align:start;writing-mode:lr-tb;text-anchor:start;fill:#939dac;fill-opacity:1;stroke-width:0.17160186"
           id="path1088"
           inkscape:connector-curvature="0" />
        <path
           d="m 92.173905,232.18389 q 0.143459,0 0.249166,-0.008 0.109482,-0.0113 0.184986,-0.0264 v -0.68709 q -0.04153,-0.0189 -0.132133,-0.0377 -0.09061,-0.0226 -0.249166,-0.0226 -0.09061,0 -0.188762,0.0151 -0.09816,0.0113 -0.181212,0.0566 -0.08306,0.0415 -0.135908,0.11703 -0.05285,0.0755 -0.05285,0.20009 0,0.10948 0.03398,0.18498 0.03775,0.0755 0.101932,0.12081 0.06795,0.0453 0.15856,0.068 0.09438,0.0189 0.211414,0.0189 z m -0.02265,-1.81966 q 0.192537,0 0.324671,0.0566 0.135909,0.0529 0.218964,0.15101 0.08305,0.0944 0.120808,0.22652 0.03775,0.13213 0.03775,0.28692 v 1.23073 q -0.03775,0.0113 -0.109482,0.0264 -0.07173,0.0113 -0.166111,0.0264 -0.09438,0.0151 -0.211413,0.0226 -0.113257,0.0113 -0.234065,0.0113 -0.154785,0 -0.286918,-0.034 -0.128359,-0.034 -0.226515,-0.10571 -0.09438,-0.0755 -0.151009,-0.18876 -0.05285,-0.11703 -0.05285,-0.28314 0,-0.15856 0.0604,-0.27182 0.0604,-0.11326 0.169886,-0.18499 0.109482,-0.0755 0.260491,-0.10948 0.15101,-0.034 0.328446,-0.034 0.05285,0 0.109482,0.008 0.0604,0.004 0.113258,0.0151 0.05663,0.008 0.09438,0.0189 0.04153,0.008 0.05663,0.0151 v -0.12081 q 0,-0.10193 -0.0151,-0.19631 -0.0151,-0.0982 -0.06795,-0.17366 -0.04908,-0.0793 -0.143459,-0.12458 -0.09061,-0.0491 -0.241616,-0.0491 -0.215188,0 -0.320895,0.0302 -0.105707,0.0302 -0.154785,0.0491 l -0.03398,-0.21519 q 0.06418,-0.0302 0.196312,-0.0566 0.135909,-0.0264 0.324671,-0.0264 z"
           style="font-style:normal;font-variant:normal;font-weight:300;font-stretch:normal;font-size:3.77524114px;font-family:Ubuntu;-inkscape-font-specification:'Ubuntu, Light';font-variant-ligatures:normal;font-variant-caps:normal;font-variant-numeric:normal;font-feature-settings:normal;text-align:start;writing-mode:lr-tb;text-anchor:start;fill:#939dac;fill-opacity:1;stroke-width:0.17160186"
           id="path1090"
           inkscape:connector-curvature="0" />
        <path
           d="m 93.483028,230.47748 q 0.109482,-0.0302 0.294469,-0.068 0.184987,-0.0377 0.453029,-0.0377 0.222739,0 0.369974,0.0642 0.151009,0.0642 0.23784,0.18498 0.09061,0.11703 0.128358,0.28315 0.03775,0.16611 0.03775,0.36619 v 1.09105 H 94.75906 v -1.01177 q 0,-0.20763 -0.0302,-0.35109 -0.02643,-0.14346 -0.09438,-0.23407 -0.06418,-0.0906 -0.173661,-0.12836 -0.105707,-0.0415 -0.268042,-0.0415 -0.173661,0 -0.30202,0.0189 -0.124583,0.0189 -0.162335,0.034 v 1.71396 h -0.245391 z"
           style="font-style:normal;font-variant:normal;font-weight:300;font-stretch:normal;font-size:3.77524114px;font-family:Ubuntu;-inkscape-font-specification:'Ubuntu, Light';font-variant-ligatures:normal;font-variant-caps:normal;font-variant-numeric:normal;font-feature-settings:normal;text-align:start;writing-mode:lr-tb;text-anchor:start;fill:#939dac;fill-opacity:1;stroke-width:0.17160186"
           id="path1092"
           inkscape:connector-curvature="0" />
        <path
           d="m 96.736813,232.36133 h -0.24539 v -1.9518 h 0.24539 z m 0.05663,-2.54074 q 0,0.0868 -0.05285,0.13968 -0.05285,0.0491 -0.128359,0.0491 -0.0755,0 -0.128358,-0.0491 -0.05285,-0.0529 -0.05285,-0.13968 0,-0.0868 0.05285,-0.13591 0.05285,-0.0528 0.128358,-0.0528 0.07551,0 0.128359,0.0528 0.05285,0.0491 0.05285,0.13591 z"
           style="font-style:normal;font-variant:normal;font-weight:300;font-stretch:normal;font-size:3.77524114px;font-family:Ubuntu;-inkscape-font-specification:'Ubuntu, Light';font-variant-ligatures:normal;font-variant-caps:normal;font-variant-numeric:normal;font-feature-settings:normal;text-align:start;writing-mode:lr-tb;text-anchor:start;fill:#939dac;fill-opacity:1;stroke-width:0.17160186"
           id="path1094"
           inkscape:connector-curvature="0" />
        <path
           d="m 97.383619,230.47748 q 0.109482,-0.0302 0.283143,-0.068 0.177437,-0.0377 0.456805,-0.0377 0.369973,0 0.536084,0.21518 0.01888,-0.0151 0.07173,-0.0491 0.05663,-0.0378 0.139684,-0.0755 0.08306,-0.0377 0.192538,-0.0642 0.113257,-0.0264 0.249165,-0.0264 0.22274,0 0.358648,0.0679 0.139684,0.0642 0.215189,0.18499 0.0755,0.11703 0.101932,0.28314 0.02642,0.16611 0.02642,0.36242 v 1.09105 H 99.7695 v -1.01177 q 0,-0.19253 -0.01888,-0.33222 -0.0151,-0.14346 -0.06795,-0.23406 -0.04908,-0.0944 -0.143459,-0.13969 -0.09438,-0.0491 -0.245391,-0.0491 -0.113257,0 -0.207638,0.0226 -0.09061,0.0189 -0.15856,0.0491 -0.06795,0.0302 -0.113257,0.0604 -0.04153,0.0302 -0.0604,0.0453 0.03398,0.0982 0.04908,0.22274 0.01888,0.12081 0.01888,0.25672 v 1.10992 H 98.5766 v -1.01177 q 0,-0.19253 -0.01888,-0.33222 -0.0151,-0.14346 -0.06795,-0.23406 -0.05285,-0.0944 -0.15101,-0.13969 -0.09438,-0.0491 -0.252941,-0.0491 -0.177436,0 -0.302019,0.0189 -0.120808,0.0189 -0.154785,0.034 v 1.71396 h -0.245391 z"
           style="font-style:normal;font-variant:normal;font-weight:300;font-stretch:normal;font-size:3.77524114px;font-family:Ubuntu;-inkscape-font-specification:'Ubuntu, Light';font-variant-ligatures:normal;font-variant-caps:normal;font-variant-numeric:normal;font-feature-settings:normal;text-align:start;writing-mode:lr-tb;text-anchor:start;fill:#939dac;fill-opacity:1;stroke-width:0.17160186"
           id="path1096"
           inkscape:connector-curvature="0" />
        <path
           d="m 101.25808,232.18389 q 0.14346,0 0.24916,-0.008 0.10949,-0.0113 0.18499,-0.0264 v -0.68709 q -0.0415,-0.0189 -0.13213,-0.0377 -0.0906,-0.0226 -0.24917,-0.0226 -0.0906,0 -0.18876,0.0151 -0.0982,0.0113 -0.18121,0.0566 -0.0831,0.0415 -0.13591,0.11703 -0.0528,0.0755 -0.0528,0.20009 0,0.10948 0.034,0.18498 0.0378,0.0755 0.10193,0.12081 0.068,0.0453 0.15856,0.068 0.0944,0.0189 0.21142,0.0189 z m -0.0227,-1.81966 q 0.19253,0 0.32467,0.0566 0.13591,0.0529 0.21896,0.15101 0.0831,0.0944 0.12081,0.22652 0.0377,0.13213 0.0377,0.28692 v 1.23073 q -0.0377,0.0113 -0.10948,0.0264 -0.0717,0.0113 -0.16611,0.0264 -0.0944,0.0151 -0.21141,0.0226 -0.11326,0.0113 -0.23407,0.0113 -0.15478,0 -0.28692,-0.034 -0.12836,-0.034 -0.22651,-0.10571 -0.0944,-0.0755 -0.15101,-0.18876 -0.0529,-0.11703 -0.0529,-0.28314 0,-0.15856 0.0604,-0.27182 0.0604,-0.11326 0.16988,-0.18499 0.10949,-0.0755 0.2605,-0.10948 0.15101,-0.034 0.32844,-0.034 0.0529,0 0.10948,0.008 0.0604,0.004 0.11326,0.0151 0.0566,0.008 0.0944,0.0189 0.0415,0.008 0.0566,0.0151 v -0.12081 q 0,-0.10193 -0.0151,-0.19631 -0.0151,-0.0982 -0.068,-0.17366 -0.0491,-0.0793 -0.14346,-0.12458 -0.0906,-0.0491 -0.24162,-0.0491 -0.21519,0 -0.32089,0.0302 -0.10571,0.0302 -0.15479,0.0491 l -0.034,-0.21519 q 0.0642,-0.0302 0.19632,-0.0566 0.1359,-0.0264 0.32467,-0.0264 z"
           style="font-style:normal;font-variant:normal;font-weight:300;font-stretch:normal;font-size:3.77524114px;font-family:Ubuntu;-inkscape-font-specification:'Ubuntu, Light';font-variant-ligatures:normal;font-variant-caps:normal;font-variant-numeric:normal;font-feature-settings:normal;text-align:start;writing-mode:lr-tb;text-anchor:start;fill:#939dac;fill-opacity:1;stroke-width:0.17160186"
           id="path1098"
           inkscape:connector-curvature="0" />
        <path
           d="m 103.83946,232.13481 q -0.0226,0.0189 -0.068,0.0453 -0.0453,0.0226 -0.11325,0.0491 -0.0642,0.0264 -0.15101,0.0453 -0.0831,0.0151 -0.18877,0.0151 -0.16988,0 -0.32844,-0.0529 -0.15856,-0.0529 -0.27937,-0.16612 -0.11703,-0.11325 -0.18876,-0.29069 -0.0717,-0.18121 -0.0717,-0.43793 0,-0.20764 0.0642,-0.38507 0.0642,-0.17744 0.18121,-0.3058 0.12081,-0.13213 0.29069,-0.20386 0.17366,-0.0755 0.38885,-0.0755 0.27182,0 0.43416,0.0377 0.16611,0.034 0.27181,0.068 v 1.78192 q 0,0.43792 -0.22651,0.62291 -0.22652,0.18876 -0.68332,0.18876 -0.18876,0 -0.34355,-0.0302 -0.15101,-0.0264 -0.26049,-0.0642 l 0.0491,-0.22274 q 0.0906,0.0415 0.24539,0.0717 0.15856,0.0302 0.31712,0.0302 0.34732,0 0.50211,-0.1359 0.15856,-0.13214 0.15856,-0.45681 z m -0.004,-1.48744 q -0.0642,-0.0189 -0.16611,-0.034 -0.10193,-0.0189 -0.29069,-0.0189 -0.15856,0 -0.28314,0.0566 -0.12081,0.0529 -0.20764,0.15479 -0.0868,0.0982 -0.13214,0.23784 -0.0453,0.13591 -0.0453,0.30202 0,0.19254 0.0528,0.33222 0.0529,0.13591 0.13591,0.22274 0.0868,0.0868 0.19632,0.12836 0.10948,0.0377 0.22273,0.0377 0.16612,0 0.30202,-0.0491 0.13969,-0.0491 0.21519,-0.11326 z"
           style="font-style:normal;font-variant:normal;font-weight:300;font-stretch:normal;font-size:3.77524114px;font-family:Ubuntu;-inkscape-font-specification:'Ubuntu, Light';font-variant-ligatures:normal;font-variant-caps:normal;font-variant-numeric:normal;font-feature-settings:normal;text-align:start;writing-mode:lr-tb;text-anchor:start;fill:#939dac;fill-opacity:1;stroke-width:0.17160186"
           id="path1100"
           inkscape:connector-curvature="0" />
        <path
           d="m 104.61061,231.38354 q 0,-0.25672 0.0717,-0.44548 0.0755,-0.19254 0.19254,-0.32089 0.12081,-0.12836 0.27182,-0.18877 0.15478,-0.0642 0.31712,-0.0642 0.35864,0 0.57006,0.23406 0.21519,0.23407 0.21519,0.72107 0,0.0302 -0.004,0.0604 0,0.0302 -0.004,0.0566 h -1.37042 q 0.0113,0.35865 0.17744,0.55119 0.16611,0.19254 0.52853,0.19254 0.20009,0 0.31712,-0.0378 0.11704,-0.0377 0.16989,-0.0642 l 0.0453,0.21141 q -0.0529,0.0302 -0.20009,0.0717 -0.14345,0.0415 -0.33977,0.0415 -0.25671,0 -0.43793,-0.0755 -0.18121,-0.0755 -0.29824,-0.21141 -0.11703,-0.13591 -0.16989,-0.3209 -0.0529,-0.18876 -0.0529,-0.4115 z m 1.38551,-0.15478 q -0.008,-0.3058 -0.14345,-0.47568 -0.13591,-0.16989 -0.38508,-0.16989 -0.13213,0 -0.23784,0.0529 -0.10193,0.0529 -0.18121,0.14346 -0.0755,0.0868 -0.12081,0.20387 -0.0415,0.11703 -0.0491,0.24539 z"
           style="font-style:normal;font-variant:normal;font-weight:300;font-stretch:normal;font-size:3.77524114px;font-family:Ubuntu;-inkscape-font-specification:'Ubuntu, Light';font-variant-ligatures:normal;font-variant-caps:normal;font-variant-numeric:normal;font-feature-settings:normal;text-align:start;writing-mode:lr-tb;text-anchor:start;fill:#939dac;fill-opacity:1;stroke-width:0.17160186"
           id="path1102"
           inkscape:connector-curvature="0" />
        <path
           d="m 107.89259,230.40953 h 0.7777 v 0.20764 h -0.7777 v 1.03819 q 0,0.16611 0.0264,0.27182 0.0302,0.10193 0.0831,0.15856 0.0529,0.0566 0.12836,0.0755 0.0755,0.0189 0.16611,0.0189 0.15479,0 0.24917,-0.034 0.0944,-0.0377 0.14723,-0.0679 l 0.0604,0.20386 q -0.0529,0.034 -0.18499,0.0793 -0.13213,0.0415 -0.28692,0.0415 -0.18121,0 -0.30579,-0.0453 -0.12081,-0.0491 -0.19632,-0.14346 -0.0717,-0.0982 -0.10193,-0.24161 -0.0302,-0.14346 -0.0302,-0.33977 v -1.79702 l 0.24539,-0.0453 z"
           style="font-style:normal;font-variant:normal;font-weight:300;font-stretch:normal;font-size:3.77524114px;font-family:Ubuntu;-inkscape-font-specification:'Ubuntu, Light';font-variant-ligatures:normal;font-variant-caps:normal;font-variant-numeric:normal;font-feature-settings:normal;text-align:start;writing-mode:lr-tb;text-anchor:start;fill:#939dac;fill-opacity:1;stroke-width:0.17160186"
           id="path1104"
           inkscape:connector-curvature="0" />
        <path
           d="m 110.78714,231.38732 q 0,0.23029 -0.0679,0.41905 -0.0642,0.18876 -0.18499,0.32089 -0.11703,0.13214 -0.27937,0.20764 -0.16233,0.0717 -0.35865,0.0717 -0.19631,0 -0.35864,-0.0717 -0.16234,-0.0755 -0.28315,-0.20764 -0.11703,-0.13213 -0.18498,-0.32089 -0.0642,-0.18876 -0.0642,-0.41905 0,-0.23029 0.0642,-0.41906 0.0679,-0.18876 0.18498,-0.32089 0.12081,-0.13591 0.28315,-0.20764 0.16233,-0.0755 0.35864,-0.0755 0.19632,0 0.35865,0.0755 0.16234,0.0717 0.27937,0.20764 0.12081,0.13213 0.18499,0.32089 0.0679,0.18877 0.0679,0.41906 z m -0.26049,0 q 0,-0.3662 -0.16989,-0.58139 -0.16988,-0.21897 -0.46058,-0.21897 -0.29069,0 -0.46058,0.21897 -0.16988,0.21519 -0.16988,0.58139 0,0.36619 0.16988,0.58138 0.16989,0.21519 0.46058,0.21519 0.2907,0 0.46058,-0.21519 0.16989,-0.21519 0.16989,-0.58138 z"
           style="font-style:normal;font-variant:normal;font-weight:300;font-stretch:normal;font-size:3.77524114px;font-family:Ubuntu;-inkscape-font-specification:'Ubuntu, Light';font-variant-ligatures:normal;font-variant-caps:normal;font-variant-numeric:normal;font-feature-settings:normal;text-align:start;writing-mode:lr-tb;text-anchor:start;fill:#939dac;fill-opacity:1;stroke-width:0.17160186"
           id="path1106"
           inkscape:connector-curvature="0" />
        <path
           d="m 112.79763,232.18389 q 0.14346,0 0.24917,-0.008 0.10948,-0.0113 0.18499,-0.0264 v -0.68709 q -0.0415,-0.0189 -0.13214,-0.0377 -0.0906,-0.0226 -0.24916,-0.0226 -0.0906,0 -0.18877,0.0151 -0.0982,0.0113 -0.18121,0.0566 -0.0831,0.0415 -0.13591,0.11703 -0.0529,0.0755 -0.0529,0.20009 0,0.10948 0.034,0.18498 0.0378,0.0755 0.10193,0.12081 0.0679,0.0453 0.15856,0.068 0.0944,0.0189 0.21141,0.0189 z m -0.0226,-1.81966 q 0.19254,0 0.32467,0.0566 0.13591,0.0529 0.21897,0.15101 0.0831,0.0944 0.1208,0.22652 0.0378,0.13213 0.0378,0.28692 v 1.23073 q -0.0378,0.0113 -0.10949,0.0264 -0.0717,0.0113 -0.16611,0.0264 -0.0944,0.0151 -0.21141,0.0226 -0.11326,0.0113 -0.23407,0.0113 -0.15478,0 -0.28691,-0.034 -0.12836,-0.034 -0.22652,-0.10571 -0.0944,-0.0755 -0.15101,-0.18876 -0.0529,-0.11703 -0.0529,-0.28314 0,-0.15856 0.0604,-0.27182 0.0604,-0.11326 0.16989,-0.18499 0.10948,-0.0755 0.26049,-0.10948 0.15101,-0.034 0.32845,-0.034 0.0528,0 0.10948,0.008 0.0604,0.004 0.11326,0.0151 0.0566,0.008 0.0944,0.0189 0.0415,0.008 0.0566,0.0151 v -0.12081 q 0,-0.10193 -0.0151,-0.19631 -0.0151,-0.0982 -0.0679,-0.17366 -0.0491,-0.0793 -0.14346,-0.12458 -0.0906,-0.0491 -0.24161,-0.0491 -0.21519,0 -0.3209,0.0302 -0.10571,0.0302 -0.15479,0.0491 l -0.034,-0.21519 q 0.0642,-0.0302 0.19631,-0.0566 0.13591,-0.0264 0.32467,-0.0264 z"
           style="font-style:normal;font-variant:normal;font-weight:300;font-stretch:normal;font-size:3.77524114px;font-family:Ubuntu;-inkscape-font-specification:'Ubuntu, Light';font-variant-ligatures:normal;font-variant-caps:normal;font-variant-numeric:normal;font-feature-settings:normal;text-align:start;writing-mode:lr-tb;text-anchor:start;fill:#939dac;fill-opacity:1;stroke-width:0.17160186"
           id="path1108"
           inkscape:connector-curvature="0" />
        <path
           d="m 114.69569,232.09706 q 0.0793,-0.16233 0.16234,-0.36997 0.0831,-0.21142 0.15856,-0.43416 0.0793,-0.22651 0.14346,-0.45302 0.0679,-0.23029 0.11326,-0.43038 h 0.24539 q -0.068,0.26804 -0.15101,0.52853 -0.0831,0.26049 -0.17744,0.50966 -0.0906,0.24917 -0.19254,0.47946 -0.0982,0.23029 -0.19253,0.43415 h -0.23407 q -0.0982,-0.20386 -0.19631,-0.43415 -0.0982,-0.23029 -0.19254,-0.47946 -0.0906,-0.24917 -0.17366,-0.50966 -0.0831,-0.26049 -0.15101,-0.52853 h 0.26049 q 0.0453,0.20009 0.10948,0.43038 0.068,0.22651 0.14346,0.45302 0.0793,0.22274 0.16234,0.43416 0.0831,0.20764 0.16233,0.36997 z"
           style="font-style:normal;font-variant:normal;font-weight:300;font-stretch:normal;font-size:3.77524114px;font-family:Ubuntu;-inkscape-font-specification:'Ubuntu, Light';font-variant-ligatures:normal;font-variant-caps:normal;font-variant-numeric:normal;font-feature-settings:normal;text-align:start;writing-mode:lr-tb;text-anchor:start;fill:#939dac;fill-opacity:1;stroke-width:0.17160186"
           id="path1110"
           inkscape:connector-curvature="0" />
        <path
           d="m 117.58553,231.38732 q 0,0.23029 -0.068,0.41905 -0.0642,0.18876 -0.18499,0.32089 -0.11703,0.13214 -0.27936,0.20764 -0.16234,0.0717 -0.35865,0.0717 -0.19631,0 -0.35865,-0.0717 -0.16233,-0.0755 -0.28314,-0.20764 -0.11703,-0.13213 -0.18499,-0.32089 -0.0642,-0.18876 -0.0642,-0.41905 0,-0.23029 0.0642,-0.41906 0.068,-0.18876 0.18499,-0.32089 0.12081,-0.13591 0.28314,-0.20764 0.16234,-0.0755 0.35865,-0.0755 0.19631,0 0.35865,0.0755 0.16233,0.0717 0.27936,0.20764 0.12081,0.13213 0.18499,0.32089 0.068,0.18877 0.068,0.41906 z m -0.2605,0 q 0,-0.3662 -0.16988,-0.58139 -0.16989,-0.21897 -0.46058,-0.21897 -0.29069,0 -0.46058,0.21897 -0.16989,0.21519 -0.16989,0.58139 0,0.36619 0.16989,0.58138 0.16989,0.21519 0.46058,0.21519 0.29069,0 0.46058,-0.21519 0.16988,-0.21519 0.16988,-0.58138 z"
           style="font-style:normal;font-variant:normal;font-weight:300;font-stretch:normal;font-size:3.77524114px;font-family:Ubuntu;-inkscape-font-specification:'Ubuntu, Light';font-variant-ligatures:normal;font-variant-caps:normal;font-variant-numeric:normal;font-feature-settings:normal;text-align:start;writing-mode:lr-tb;text-anchor:start;fill:#939dac;fill-opacity:1;stroke-width:0.17160186"
           id="path1112"
           inkscape:connector-curvature="0" />
        <path
           d="m 118.36334,232.36133 h -0.24539 v -1.9518 h 0.24539 z m 0.0566,-2.54074 q 0,0.0868 -0.0529,0.13968 -0.0529,0.0491 -0.12836,0.0491 -0.0755,0 -0.12836,-0.0491 -0.0528,-0.0529 -0.0528,-0.13968 0,-0.0868 0.0528,-0.13591 0.0529,-0.0528 0.12836,-0.0528 0.0755,0 0.12836,0.0528 0.0529,0.0491 0.0529,0.13591 z"
           style="font-style:normal;font-variant:normal;font-weight:300;font-stretch:normal;font-size:3.77524114px;font-family:Ubuntu;-inkscape-font-specification:'Ubuntu, Light';font-variant-ligatures:normal;font-variant-caps:normal;font-variant-numeric:normal;font-feature-settings:normal;text-align:start;writing-mode:lr-tb;text-anchor:start;fill:#939dac;fill-opacity:1;stroke-width:0.17160186"
           id="path1114"
           inkscape:connector-curvature="0" />
        <path
           d="m 120.56177,232.30092 q -0.10948,0.0378 -0.27937,0.0717 -0.16988,0.034 -0.43038,0.034 -0.21518,0 -0.39262,-0.0679 -0.17366,-0.0717 -0.30202,-0.20387 -0.12458,-0.13213 -0.19631,-0.32089 -0.068,-0.18876 -0.068,-0.4266 0,-0.22274 0.0566,-0.40773 0.0604,-0.18876 0.17366,-0.32467 0.11326,-0.13591 0.27559,-0.21141 0.16612,-0.0755 0.37753,-0.0755 0.19254,0 0.33222,0.0566 0.14346,0.0529 0.20764,0.10193 v -1.04952 l 0.24539,-0.0453 z m -0.24539,-1.53652 q -0.034,-0.0264 -0.0868,-0.0566 -0.0491,-0.0302 -0.11703,-0.0566 -0.068,-0.0264 -0.14724,-0.0415 -0.0793,-0.0189 -0.16611,-0.0189 -0.18121,0 -0.30579,0.0642 -0.12081,0.0642 -0.19632,0.17366 -0.0755,0.10571 -0.10948,0.25294 -0.034,0.14346 -0.034,0.3058 0,0.38507 0.19254,0.59271 0.19254,0.20386 0.50966,0.20386 0.18121,0 0.29069,-0.0151 0.11326,-0.0189 0.16989,-0.0377 z"
           style="font-style:normal;font-variant:normal;font-weight:300;font-stretch:normal;font-size:3.77524114px;font-family:Ubuntu;-inkscape-font-specification:'Ubuntu, Light';font-variant-ligatures:normal;font-variant-caps:normal;font-variant-numeric:normal;font-feature-settings:normal;text-align:start;writing-mode:lr-tb;text-anchor:start;fill:#939dac;fill-opacity:1;stroke-width:0.17160186"
           id="path1116"
           inkscape:connector-curvature="0" />
        <path
           d="m 122.47771,232.18767 q 0.21141,0 0.34732,-0.068 0.13968,-0.0717 0.13968,-0.23784 0,-0.0793 -0.0264,-0.13591 -0.0226,-0.0566 -0.0793,-0.10193 -0.0566,-0.0453 -0.15101,-0.0868 -0.0906,-0.0415 -0.22652,-0.0982 -0.10948,-0.0453 -0.20764,-0.0906 -0.0982,-0.0491 -0.17366,-0.10948 -0.0755,-0.0642 -0.1208,-0.15101 -0.0453,-0.0868 -0.0453,-0.21142 0,-0.23784 0.17744,-0.38507 0.18121,-0.14723 0.49456,-0.14723 0.20008,0 0.32844,0.034 0.13213,0.034 0.18499,0.0604 l -0.0566,0.21896 q -0.0453,-0.0226 -0.15479,-0.0604 -0.1057,-0.0378 -0.31334,-0.0378 -0.0831,0 -0.15856,0.0189 -0.0717,0.0151 -0.12836,0.0529 -0.0566,0.034 -0.0906,0.0906 -0.034,0.0529 -0.034,0.13213 0,0.0793 0.0302,0.13591 0.0302,0.0566 0.0868,0.10193 0.0604,0.0415 0.14346,0.0793 0.0868,0.0378 0.19631,0.0831 0.11326,0.0453 0.21519,0.0944 0.10571,0.0453 0.18499,0.11326 0.0793,0.0642 0.12836,0.15856 0.0491,0.0906 0.0491,0.23029 0,0.26426 -0.20008,0.40017 -0.19632,0.13591 -0.53986,0.13591 -0.25672,0 -0.39263,-0.0453 -0.13591,-0.0415 -0.18121,-0.0642 l 0.0642,-0.22274 q 0.0113,0.008 0.0491,0.0264 0.0378,0.0151 0.10193,0.0377 0.0642,0.0189 0.15101,0.034 0.0906,0.0151 0.20764,0.0151 z"
           style="font-style:normal;font-variant:normal;font-weight:300;font-stretch:normal;font-size:3.77524114px;font-family:Ubuntu;-inkscape-font-specification:'Ubuntu, Light';font-variant-ligatures:normal;font-variant-caps:normal;font-variant-numeric:normal;font-feature-settings:normal;text-align:start;writing-mode:lr-tb;text-anchor:start;fill:#939dac;fill-opacity:1;stroke-width:0.17160186"
           id="path1118"
           inkscape:connector-curvature="0" />
        <path
           d="m 123.93772,232.01023 q 0.034,0.0264 0.0831,0.0566 0.0528,0.0302 0.1208,0.0566 0.068,0.0264 0.14724,0.0453 0.0793,0.0151 0.16611,0.0151 0.18121,0 0.30202,-0.0604 0.12458,-0.0642 0.20009,-0.16989 0.0755,-0.10948 0.10948,-0.25294 0.034,-0.14723 0.034,-0.30957 0,-0.38507 -0.19254,-0.58894 -0.19254,-0.20763 -0.50966,-0.20763 -0.18121,0 -0.29447,0.0189 -0.10948,0.0151 -0.16611,0.034 z m 0,1.04952 h -0.24539 v -2.58227 q 0.10948,-0.0378 0.27937,-0.0717 0.16988,-0.034 0.43038,-0.034 0.21519,0 0.38885,0.0717 0.17743,0.0679 0.30202,0.20008 0.12835,0.13214 0.19631,0.3209 0.0717,0.18876 0.0717,0.4266 0,0.22274 -0.0604,0.4115 -0.0566,0.18499 -0.16988,0.3209 -0.11326,0.13213 -0.27937,0.20764 -0.16234,0.0755 -0.37375,0.0755 -0.19254,0 -0.336,-0.0529 -0.13968,-0.0566 -0.20386,-0.10571 z"
           style="font-style:normal;font-variant:normal;font-weight:300;font-stretch:normal;font-size:3.77524114px;font-family:Ubuntu;-inkscape-font-specification:'Ubuntu, Light';font-variant-ligatures:normal;font-variant-caps:normal;font-variant-numeric:normal;font-feature-settings:normal;text-align:start;writing-mode:lr-tb;text-anchor:start;fill:#939dac;fill-opacity:1;stroke-width:0.17160186"
           id="path1120"
           inkscape:connector-curvature="0" />
        <path
           d="m 126.51238,232.18389 q 0.14346,0 0.24916,-0.008 0.10948,-0.0113 0.18499,-0.0264 v -0.68709 q -0.0415,-0.0189 -0.13213,-0.0377 -0.0906,-0.0226 -0.24917,-0.0226 -0.0906,0 -0.18876,0.0151 -0.0982,0.0113 -0.18121,0.0566 -0.0831,0.0415 -0.13591,0.11703 -0.0529,0.0755 -0.0529,0.20009 0,0.10948 0.034,0.18498 0.0378,0.0755 0.10193,0.12081 0.068,0.0453 0.15856,0.068 0.0944,0.0189 0.21142,0.0189 z m -0.0226,-1.81966 q 0.19253,0 0.32467,0.0566 0.1359,0.0529 0.21896,0.15101 0.0831,0.0944 0.12081,0.22652 0.0378,0.13213 0.0378,0.28692 v 1.23073 q -0.0378,0.0113 -0.10948,0.0264 -0.0717,0.0113 -0.16611,0.0264 -0.0944,0.0151 -0.21142,0.0226 -0.11325,0.0113 -0.23406,0.0113 -0.15479,0 -0.28692,-0.034 -0.12836,-0.034 -0.22651,-0.10571 -0.0944,-0.0755 -0.15101,-0.18876 -0.0529,-0.11703 -0.0529,-0.28314 0,-0.15856 0.0604,-0.27182 0.0604,-0.11326 0.16988,-0.18499 0.10949,-0.0755 0.26049,-0.10948 0.15101,-0.034 0.32845,-0.034 0.0529,0 0.10948,0.008 0.0604,0.004 0.11326,0.0151 0.0566,0.008 0.0944,0.0189 0.0415,0.008 0.0566,0.0151 v -0.12081 q 0,-0.10193 -0.0151,-0.19631 -0.0151,-0.0982 -0.068,-0.17366 -0.0491,-0.0793 -0.14345,-0.12458 -0.0906,-0.0491 -0.24162,-0.0491 -0.21519,0 -0.3209,0.0302 -0.1057,0.0302 -0.15478,0.0491 l -0.034,-0.21519 q 0.0642,-0.0302 0.19631,-0.0566 0.13591,-0.0264 0.32468,-0.0264 z"
           style="font-style:normal;font-variant:normal;font-weight:300;font-stretch:normal;font-size:3.77524114px;font-family:Ubuntu;-inkscape-font-specification:'Ubuntu, Light';font-variant-ligatures:normal;font-variant-caps:normal;font-variant-numeric:normal;font-feature-settings:normal;text-align:start;writing-mode:lr-tb;text-anchor:start;fill:#939dac;fill-opacity:1;stroke-width:0.17160186"
           id="path1122"
           inkscape:connector-curvature="0" />
        <path
           d="m 127.8215,230.47748 q 0.10948,-0.0302 0.28314,-0.068 0.17744,-0.0377 0.45681,-0.0377 0.36997,0 0.53608,0.21518 0.0189,-0.0151 0.0717,-0.0491 0.0566,-0.0378 0.13969,-0.0755 0.083,-0.0377 0.19253,-0.0642 0.11326,-0.0264 0.24917,-0.0264 0.22274,0 0.35865,0.0679 0.13968,0.0642 0.21519,0.18499 0.0755,0.11703 0.10193,0.28314 0.0264,0.16611 0.0264,0.36242 v 1.09105 h -0.24539 v -1.01177 q 0,-0.19253 -0.0189,-0.33222 -0.0151,-0.14346 -0.068,-0.23406 -0.0491,-0.0944 -0.14346,-0.13969 -0.0944,-0.0491 -0.24539,-0.0491 -0.11325,0 -0.20764,0.0226 -0.0906,0.0189 -0.15856,0.0491 -0.0679,0.0302 -0.11325,0.0604 -0.0415,0.0302 -0.0604,0.0453 0.034,0.0982 0.0491,0.22274 0.0189,0.12081 0.0189,0.25672 v 1.10992 h -0.24539 v -1.01177 q 0,-0.19253 -0.0189,-0.33222 -0.0151,-0.14346 -0.0679,-0.23406 -0.0529,-0.0944 -0.15101,-0.13969 -0.0944,-0.0491 -0.25294,-0.0491 -0.17744,0 -0.30202,0.0189 -0.12081,0.0189 -0.15479,0.034 v 1.71396 h -0.24539 z"
           style="font-style:normal;font-variant:normal;font-weight:300;font-stretch:normal;font-size:3.77524114px;font-family:Ubuntu;-inkscape-font-specification:'Ubuntu, Light';font-variant-ligatures:normal;font-variant-caps:normal;font-variant-numeric:normal;font-feature-settings:normal;text-align:start;writing-mode:lr-tb;text-anchor:start;fill:#939dac;fill-opacity:1;stroke-width:0.17160186"
           id="path1124"
           inkscape:connector-curvature="0" />
        <path
           d="m 131.56129,231.23253 q 0,0.54741 -0.18121,1.00799 -0.17744,0.46058 -0.46436,0.81923 l -0.17743,-0.12081 q 0.29824,-0.36997 0.43415,-0.78147 0.13969,-0.41528 0.13969,-0.92494 0,-0.50966 -0.13969,-0.92116 -0.13591,-0.41527 -0.43415,-0.78525 l 0.17743,-0.12081 q 0.28692,0.35865 0.46436,0.81923 0.18121,0.46058 0.18121,1.00799 z"
           style="font-style:normal;font-variant:normal;font-weight:300;font-stretch:normal;font-size:3.77524114px;font-family:Ubuntu;-inkscape-font-specification:'Ubuntu, Light';font-variant-ligatures:normal;font-variant-caps:normal;font-variant-numeric:normal;font-feature-settings:normal;text-align:start;writing-mode:lr-tb;text-anchor:start;fill:#939dac;fill-opacity:1;stroke-width:0.17160186"
           id="path1126"
           inkscape:connector-curvature="0" />
      </g>
    </g>
  </g>
</svg>
