<?xml version="1.0" encoding="UTF-8" standalone="no"?>
<!-- Created with Inkscape (http://www.inkscape.org/) -->

<svg
   xmlns:dc="http://purl.org/dc/elements/1.1/"
   xmlns:cc="http://creativecommons.org/ns#"
   xmlns:rdf="http://www.w3.org/1999/02/22-rdf-syntax-ns#"
   xmlns:svg="http://www.w3.org/2000/svg"
   xmlns="http://www.w3.org/2000/svg"
   xmlns:xlink="http://www.w3.org/1999/xlink"
   xmlns:sodipodi="http://sodipodi.sourceforge.net/DTD/sodipodi-0.dtd"
   xmlns:inkscape="http://www.inkscape.org/namespaces/inkscape"
   width="512"
   height="512"
   viewBox="0 0 135.46666 135.46667"
   version="1.1"
   id="svg8"
   inkscape:version="0.92.4 (33fec40, 2019-01-16)"
   sodipodi:docname="km-logo.svg">
  <defs
     id="defs2">
    <linearGradient
       inkscape:collect="always"
       id="linearGradient868">
      <stop
         style="stop-color:#dcdce4;stop-opacity:1;"
         offset="0"
         id="stop864" />
      <stop
         style="stop-color:#dcdce4;stop-opacity:0;"
         offset="1"
         id="stop866" />
    </linearGradient>
    <linearGradient
       inkscape:collect="always"
       xlink:href="#linearGradient868"
       id="linearGradient876"
       gradientUnits="userSpaceOnUse"
       x1="258.32031"
       y1="274.8457"
       x2="258.32031"
       y2="479.8457" />
  </defs>
  <sodipodi:namedview
     id="base"
     pagecolor="#ffffff"
     bordercolor="#666666"
     borderopacity="1.0"
     inkscape:pageopacity="0.0"
     inkscape:pageshadow="2"
     inkscape:zoom="1"
     inkscape:cx="194.58913"
     inkscape:cy="258.55088"
     inkscape:document-units="px"
     inkscape:current-layer="layer1"
     showgrid="false"
     units="px"
     inkscape:snap-global="false"
     inkscape:window-width="1366"
     inkscape:window-height="731"
     inkscape:window-x="0"
     inkscape:window-y="0"
     inkscape:window-maximized="1">
    <inkscape:grid
       type="xygrid"
       id="grid819" />
  </sodipodi:namedview>
  <metadata
     id="metadata5">
    <rdf:RDF>
      <cc:Work
         rdf:about="">
        <dc:format>image/svg+xml</dc:format>
        <dc:type
           rdf:resource="http://purl.org/dc/dcmitype/StillImage" />
        <dc:title></dc:title>
      </cc:Work>
    </rdf:RDF>
  </metadata>
  <g
     inkscape:label="Layer 1"
     inkscape:groupmode="layer"
     id="layer1"
     transform="translate(0,-161.53331)">
    <path
       style="font-style:normal;font-variant:normal;font-weight:500;font-stretch:normal;font-size:139.05213928px;line-height:86.90758514px;font-family:Ubuntu;-inkscape-font-specification:'Ubuntu, Medium';font-variant-ligatures:normal;font-variant-caps:normal;font-variant-numeric:normal;font-feature-settings:normal;text-align:start;letter-spacing:0px;word-spacing:0px;writing-mode:lr-tb;text-anchor:start;opacity:1;fill:#378ae5;fill-opacity:1;stroke:none;stroke-width:13.15237904"
       d="M 13.320312 32.835938 L 13.320312 480.28711 L 67.332031 480.28711 L 67.332031 279.48242 C 78.477299 291.10451 89.764275 304.88005 101.19531 320.80664 C 112.62636 336.73323 123.62942 353.51962 134.20312 371.16797 C 145.06263 388.81632 155.35002 407.11108 165.06641 426.05078 C 166.07916 428.0249 167.07264 429.98404 168.06055 431.93945 C 168.7875 410.04896 169.54666 387.85612 170.36719 365.11523 A 6.7088788 6.7088788 0 0 1 170.36719 365.07031 C 171.04619 349.38826 171.72524 334.08239 172.4043 318.53516 C 166.03391 308.34355 159.5887 298.54838 153.06445 289.16797 C 140.77608 270.65875 128.6315 254.51649 116.62891 240.74219 C 127.48839 224.8156 138.48949 208.02917 149.63477 190.38086 C 161.0658 172.73251 172.35473 155.08394 183.5 137.43555 C 194.64526 119.35674 205.50441 101.49214 216.07812 83.84375 C 226.65184 66.195397 236.65338 49.192939 246.08398 32.835938 L 181.35547 32.835938 C 173.92529 45.318961 165.63897 59.308587 156.49414 74.804688 C 147.3493 90.300788 137.63168 106.44302 127.34375 123.23047 C 117.34159 139.58751 107.19809 155.94374 96.910156 172.30078 C 86.622218 188.22729 76.762644 203.29322 67.332031 217.49805 L 67.332031 32.835938 L 13.320312 32.835938 z M 425.69531 32.835938 C 419.40824 49.192951 412.40543 69.210132 404.68945 92.884766 C 396.97352 116.5594 389.11505 141.52394 381.11328 167.78125 C 373.11157 193.6081 365.25306 220.08101 357.53711 247.19922 C 349.82116 273.88699 342.67637 298.63746 336.10352 321.45117 C 329.53067 298.63746 322.24391 273.88699 314.24219 247.19922 C 306.52621 220.08101 298.66773 193.6081 290.66602 167.78125 C 282.6643 141.52394 274.80581 116.5594 267.08984 92.884766 C 260.59847 72.967468 254.61872 55.673628 249.13867 40.935547 C 240.49387 55.871057 231.41216 71.304319 221.83398 87.291016 C 211.24555 104.96397 200.37286 122.85438 189.21289 140.95703 A 6.7088852 6.7088852 0 0 1 189.16797 141.01562 C 188.82382 141.56059 188.47588 142.10537 188.12891 142.65039 C 186.03715 176.63057 184.06079 211.66168 182.21289 247.8457 C 180.49823 286.58599 178.78497 325.75624 177.07031 365.35742 C 175.64143 404.95861 174.35404 443.2686 173.21094 480.28711 L 226.36523 480.28711 C 227.50834 428.20295 228.79573 374.61295 230.22461 319.51562 C 231.93926 264.41834 234.36819 211.04242 237.51172 159.38867 C 240.65527 168.85853 244.36961 180.69562 248.65625 194.90039 C 252.94288 208.67473 257.51484 223.5246 262.37305 239.45117 C 267.23123 255.37772 272.09103 271.95008 276.94922 289.16797 C 282.0932 306.38588 286.95104 323.17424 291.52344 339.53125 C 296.38165 355.45783 300.81164 370.52179 304.8125 384.72656 C 308.81336 398.93134 312.24185 410.98447 315.09961 420.88477 L 355.39453 420.88477 C 358.25229 410.98447 361.68078 399.14738 365.68164 385.37305 C 369.68253 371.16827 373.96861 356.10236 378.54102 340.17578 C 383.3992 323.81879 388.25896 307.03239 393.11719 289.81445 C 398.26112 272.59656 403.26091 256.02421 408.11914 240.09766 C 412.9773 223.74064 417.54927 208.67473 421.83594 194.90039 C 426.12258 181.12605 429.83889 169.28897 432.98242 159.38867 C 436.12596 211.04242 438.41098 264.41834 439.83984 319.51562 C 441.55454 374.61295 442.98387 428.20295 444.12695 480.28711 L 497.28125 480.28711 C 496.13817 443.2686 494.70881 405.38872 492.99414 366.64844 C 491.56528 327.47767 489.85202 288.73758 487.85156 250.42773 C 486.13692 211.68745 484.13582 174.02359 481.84961 137.43555 C 479.5634 100.41706 477.13449 65.54999 474.5625 32.835938 L 425.69531 32.835938 z M 234.15039 433.66016 C 233.78971 449.24262 233.41642 464.96509 233.08008 480.28711 L 254.6582 480.28711 C 248.30835 464.74494 241.46473 449.20233 234.15039 433.66016 z "
       transform="matrix(0.26458333,0,0,0.26458333,0,161.53331)"
       id="path821" />
    <path
       style="font-style:normal;font-variant:normal;font-weight:500;font-stretch:normal;font-size:139.05213928px;line-height:86.90758514px;font-family:Ubuntu;-inkscape-font-specification:'Ubuntu, Medium';font-variant-ligatures:normal;font-variant-caps:normal;font-variant-numeric:normal;font-feature-settings:normal;text-align:start;letter-spacing:0px;word-spacing:0px;writing-mode:lr-tb;text-anchor:start;opacity:0.4;fill:url(#linearGradient876);fill-opacity:1;stroke:none;stroke-width:13.15237904"
       d="M 231.76953 275.4043 A 431.92891 215.96447 0 0 0 180.88281 278.24414 C 179.61211 307.12788 178.34142 336.00044 177.07031 365.35742 C 175.64143 404.95861 174.35404 443.2686 173.21094 480.28711 L 226.36523 480.28711 C 227.50834 428.20295 228.79573 374.61295 230.22461 319.51562 C 230.68619 304.68352 231.20442 289.9869 231.76953 275.4043 z M 273.03125 275.43164 C 274.33726 279.96637 275.64338 284.53996 276.94922 289.16797 C 282.0932 306.38588 286.95104 323.17424 291.52344 339.53125 C 296.38165 355.45783 300.81164 370.52179 304.8125 384.72656 C 308.81336 398.93134 312.24185 410.98447 315.09961 420.88477 L 355.39453 420.88477 C 358.25229 410.98447 361.68078 399.14738 365.68164 385.37305 C 369.68253 371.16827 373.96861 356.10236 378.54102 340.17578 C 383.3992 323.81879 388.25896 307.03239 393.11719 289.81445 C 393.43715 288.74347 393.74561 287.7281 394.06445 286.66211 A 431.92891 215.96447 0 0 0 348.01758 280.17383 C 344.01034 294.05322 339.7574 308.76891 336.10352 321.45117 C 332.15054 307.73079 327.85245 293.07465 323.38281 277.95312 A 431.92891 215.96447 0 0 0 273.03125 275.43164 z M 148.16797 281.91406 A 431.92891 215.96447 0 0 0 80.224609 293.81836 C 87.160427 301.99907 94.150619 310.99144 101.19531 320.80664 C 112.62636 336.73323 123.62943 353.51962 134.20312 371.16797 C 145.06263 388.81632 155.35002 407.11108 165.06641 426.05078 C 166.07916 428.0249 167.07264 429.98404 168.06055 431.93945 C 168.7875 410.04896 169.54666 387.85612 170.36719 365.11523 A 6.7088788 6.7088788 0 0 1 170.36719 365.07031 C 171.04619 349.38826 171.72524 334.08239 172.4043 318.53516 C 166.03391 308.34355 159.5887 298.54838 153.06445 289.16797 C 151.42981 286.7058 149.79753 284.29246 148.16797 281.91406 z M 439.16406 295.81836 C 439.40549 303.6854 439.63397 311.57712 439.83984 319.51562 C 441.55454 374.61295 442.98387 428.20295 444.12695 480.28711 L 497.28125 480.28711 C 496.13817 443.2686 494.70881 405.38872 492.99414 366.64844 C 492.30299 347.7011 491.54135 328.85913 490.7168 310.11328 A 431.92891 215.96447 0 0 0 439.16406 295.81836 z M 67.332031 296.70312 A 431.92891 215.96447 0 0 0 13.320312 312.30273 L 13.320312 480.28711 L 67.332031 480.28711 L 67.332031 296.70312 z M 234.15039 433.66016 C 233.78971 449.24262 233.41642 464.96509 233.08008 480.28711 L 254.6582 480.28711 C 248.30835 464.74494 241.46473 449.20233 234.15039 433.66016 z "
       id="path847"
       transform="matrix(0.26458333,0,0,0.26458333,0,161.53331)" />
  </g>
</svg>
